solid PSU BOX
facet normal 0.0 0.0 1.0
outer loop
vertex 92.29999999999997 70.49583694396574 12.0
vertex 93.49999999999997 70.99289321881345 12.0
vertex 92.29999999999997 105.50416305603423 12.0
endloop
endfacet
facet normal 0.0 0.0 1.0
outer loop
vertex 93.49999999999997 70.99289321881345 12.0
vertex 92.29999999999997 70.49583694396574 12.0
vertex 94.4958369439657 68.29999999999998 12.0
endloop
endfacet
facet normal 0.0 0.0 1.0
outer loop
vertex 93.49999999999997 70.99289321881345 12.0
vertex 94.4958369439657 68.29999999999998 12.0
vertex 94.99289321881342 69.5 12.0
endloop
endfacet
facet normal 0.0 0.0 1.0
outer loop
vertex 94.99289321881342 69.5 12.0
vertex 94.4958369439657 68.29999999999998 12.0
vertex 147.5041630560342 68.29999999999998 12.0
endloop
endfacet
facet normal 0.0 0.0 1.0
outer loop
vertex 94.99289321881342 69.5 12.0
vertex 147.5041630560342 68.29999999999998 12.0
vertex 147.00710678118648 69.5 12.0
endloop
endfacet
facet normal 0.0 0.0 1.0
outer loop
vertex 147.00710678118648 69.5 12.0
vertex 147.5041630560342 68.29999999999998 12.0
vertex 148.49999999999994 70.99289321881345 12.0
endloop
endfacet
facet normal 0.0 0.0 1.0
outer loop
vertex 148.49999999999994 70.99289321881345 12.0
vertex 147.5041630560342 68.29999999999998 12.0
vertex 149.69999999999993 70.49583694396573 12.0
endloop
endfacet
facet normal 0.0 0.0 1.0
outer loop
vertex 148.49999999999994 70.99289321881345 12.0
vertex 149.69999999999993 70.49583694396573 12.0
vertex 148.49999999999994 105.00710678118654 12.0
endloop
endfacet
facet normal 0.0 0.0 1.0
outer loop
vertex 92.29999999999997 105.50416305603423 12.0
vertex 93.49999999999997 105.00710678118654 12.0
vertex 94.49583694396573 107.69999999999999 12.0
endloop
endfacet
facet normal 0.0 0.0 1.0
outer loop
vertex 93.49999999999997 105.00710678118654 12.0
vertex 92.29999999999997 105.50416305603423 12.0
vertex 93.49999999999997 70.99289321881345 12.0
endloop
endfacet
facet normal 0.0 0.0 1.0
outer loop
vertex 94.49583694396573 107.69999999999999 12.0
vertex 93.49999999999997 105.00710678118654 12.0
vertex 94.99289321881342 106.49999999999999 12.0
endloop
endfacet
facet normal 0.0 0.0 1.0
outer loop
vertex 94.49583694396573 107.69999999999999 12.0
vertex 94.99289321881342 106.49999999999999 12.0
vertex 147.5041630560342 107.69999999999999 12.0
endloop
endfacet
facet normal 0.0 0.0 1.0
outer loop
vertex 147.5041630560342 107.69999999999999 12.0
vertex 94.99289321881342 106.49999999999999 12.0
vertex 147.00710678118648 106.49999999999999 12.0
endloop
endfacet
facet normal 0.0 0.0 1.0
outer loop
vertex 147.5041630560342 107.69999999999999 12.0
vertex 147.00710678118648 106.49999999999999 12.0
vertex 148.49999999999994 105.00710678118654 12.0
endloop
endfacet
facet normal 0.0 0.0 1.0
outer loop
vertex 147.5041630560342 107.69999999999999 12.0
vertex 148.49999999999994 105.00710678118654 12.0
vertex 149.69999999999993 105.50416305603424 12.0
endloop
endfacet
facet normal 0.0 0.0 1.0
outer loop
vertex 149.69999999999993 105.50416305603424 12.0
vertex 148.49999999999994 105.00710678118654 12.0
vertex 149.69999999999993 70.49583694396573 12.0
endloop
endfacet
facet normal 0.7071067811865476 -0.7071067811865476 0.0
outer loop
vertex 94.99289321881342 106.49999999999999 3.0
vertex 93.49999999999997 105.00710678118654 12.0
vertex 93.49999999999997 105.00710678118654 3.0
endloop
endfacet
facet normal 0.7071067811865476 -0.7071067811865476 0.0
outer loop
vertex 93.49999999999997 105.00710678118654 12.0
vertex 94.99289321881342 106.49999999999999 3.0
vertex 94.99289321881342 106.49999999999999 12.0
endloop
endfacet
facet normal 0.0 -1.0 0.0
outer loop
vertex 147.00710678118648 106.49999999999999 12.0
vertex 94.99289321881342 106.49999999999999 3.0
vertex 147.00710678118648 106.49999999999999 3.0
endloop
endfacet
facet normal 0.0 -1.0 0.0
outer loop
vertex 94.99289321881342 106.49999999999999 3.0
vertex 147.00710678118648 106.49999999999999 12.0
vertex 94.99289321881342 106.49999999999999 12.0
endloop
endfacet
facet normal 0.0 1.0 0.0
outer loop
vertex 94.99289321881342 69.5 12.0
vertex 147.00710678118648 69.5 3.0
vertex 94.99289321881342 69.5 3.0
endloop
endfacet
facet normal 0.0 1.0 0.0
outer loop
vertex 147.00710678118648 69.5 3.0
vertex 94.99289321881342 69.5 12.0
vertex 147.00710678118648 69.5 12.0
endloop
endfacet
facet normal 1.0 0.0 0.0
outer loop
vertex 93.49999999999997 105.00710678118654 3.0
vertex 93.49999999999997 70.99289321881345 12.0
vertex 93.49999999999997 70.99289321881345 3.0
endloop
endfacet
facet normal 1.0 0.0 0.0
outer loop
vertex 93.49999999999997 70.99289321881345 12.0
vertex 93.49999999999997 105.00710678118654 3.0
vertex 93.49999999999997 105.00710678118654 12.0
endloop
endfacet
facet normal 0.7071067811865482 0.7071067811865469 0.0
outer loop
vertex 93.49999999999997 70.99289321881345 3.0
vertex 94.99289321881342 69.5 12.0
vertex 94.99289321881342 69.5 3.0
endloop
endfacet
facet normal 0.7071067811865482 0.7071067811865469 0.0
outer loop
vertex 94.99289321881342 69.5 12.0
vertex 93.49999999999997 70.99289321881345 3.0
vertex 93.49999999999997 70.99289321881345 12.0
endloop
endfacet
facet normal 0.0 0.0 1.0
outer loop
vertex 94.99289321881342 69.5 3.0
vertex 93.49999999999997 105.00710678118654 3.0
vertex 93.49999999999997 70.99289321881345 3.0
endloop
endfacet
facet normal 0.0 0.0 1.0
outer loop
vertex 93.49999999999997 105.00710678118654 3.0
vertex 94.99289321881342 69.5 3.0
vertex 94.99289321881342 106.49999999999999 3.0
endloop
endfacet
facet normal 0.0 0.0 1.0
outer loop
vertex 94.99289321881342 106.49999999999999 3.0
vertex 94.99289321881342 69.5 3.0
vertex 147.00710678118648 69.5 3.0
endloop
endfacet
facet normal 0.0 0.0 1.0
outer loop
vertex 94.99289321881342 106.49999999999999 3.0
vertex 147.00710678118648 69.5 3.0
vertex 147.00710678118648 106.49999999999999 3.0
endloop
endfacet
facet normal 0.0 0.0 1.0
outer loop
vertex 147.00710678118648 106.49999999999999 3.0
vertex 147.00710678118648 69.5 3.0
vertex 148.49999999999994 70.99289321881345 3.0
endloop
endfacet
facet normal 0.0 0.0 1.0
outer loop
vertex 147.00710678118648 106.49999999999999 3.0
vertex 148.49999999999994 70.99289321881345 3.0
vertex 148.49999999999994 105.00710678118654 3.0
endloop
endfacet
facet normal -0.7071067811865475 -0.7071067811865477 0.0
outer loop
vertex 148.49999999999994 105.00710678118654 12.0
vertex 147.00710678118648 106.49999999999999 3.0
vertex 148.49999999999994 105.00710678118654 3.0
endloop
endfacet
facet normal -0.7071067811865475 -0.7071067811865477 0.0
outer loop
vertex 147.00710678118648 106.49999999999999 3.0
vertex 148.49999999999994 105.00710678118654 12.0
vertex 147.00710678118648 106.49999999999999 12.0
endloop
endfacet
facet normal -1.0 0.0 0.0
outer loop
vertex 148.49999999999994 105.00710678118654 12.0
vertex 148.49999999999994 70.99289321881345 3.0
vertex 148.49999999999994 70.99289321881345 12.0
endloop
endfacet
facet normal -1.0 0.0 0.0
outer loop
vertex 148.49999999999994 70.99289321881345 3.0
vertex 148.49999999999994 105.00710678118654 12.0
vertex 148.49999999999994 105.00710678118654 3.0
endloop
endfacet
facet normal -0.7071067811865489 0.7071067811865461 0.0
outer loop
vertex 148.49999999999994 70.99289321881345 12.0
vertex 147.00710678118648 69.5 3.0
vertex 147.00710678118648 69.5 12.0
endloop
endfacet
facet normal -0.7071067811865489 0.7071067811865461 0.0
outer loop
vertex 147.00710678118648 69.5 3.0
vertex 148.49999999999994 70.99289321881345 12.0
vertex 148.49999999999994 70.99289321881345 3.0
endloop
endfacet
facet normal 0.5000000000000018 -0.4999999999999989 0.707106781186547
outer loop
vertex 148.2497474683058 66.49999999999999 10.200000000000001
vertex 149.69999999999993 70.49583694396573 12.0
vertex 147.5041630560342 68.29999999999998 12.0
endloop
endfacet
facet normal 0.5000000000000018 -0.4999999999999989 0.707106781186547
outer loop
vertex 149.69999999999993 70.49583694396573 12.0
vertex 148.2497474683058 66.49999999999999 10.200000000000001
vertex 151.49999999999991 69.75025253169416 10.200000000000001
endloop
endfacet
facet normal 1.8620353929166923e-17 -0.7071067811865472 0.7071067811865478
outer loop
vertex 148.2497474683058 66.49999999999999 10.200000000000001
vertex 94.4958369439657 68.29999999999998 12.0
vertex 93.75025253169413 66.49999999999999 10.200000000000001
endloop
endfacet
facet normal 1.8620353929166923e-17 -0.7071067811865472 0.7071067811865478
outer loop
vertex 94.4958369439657 68.29999999999998 12.0
vertex 148.2497474683058 66.49999999999999 10.200000000000001
vertex 147.5041630560342 68.29999999999998 12.0
endloop
endfacet
facet normal -0.5000000000000012 -0.4999999999999986 0.7071067811865476
outer loop
vertex 93.75025253169413 66.49999999999999 10.200000000000001
vertex 92.29999999999997 70.49583694396574 12.0
vertex 90.49999999999997 69.75025253169417 10.200000000000001
endloop
endfacet
facet normal -0.5000000000000012 -0.4999999999999986 0.7071067811865476
outer loop
vertex 92.29999999999997 70.49583694396574 12.0
vertex 93.75025253169413 66.49999999999999 10.200000000000001
vertex 94.4958369439657 68.29999999999998 12.0
endloop
endfacet
facet normal -0.7071067811865481 0.0 0.707106781186547
outer loop
vertex 92.29999999999997 70.49583694396574 12.0
vertex 90.49999999999997 106.2497474683058 10.200000000000001
vertex 90.49999999999997 69.75025253169417 10.200000000000001
endloop
endfacet
facet normal -0.7071067811865481 0.0 0.707106781186547
outer loop
vertex 90.49999999999997 106.2497474683058 10.200000000000001
vertex 92.29999999999997 70.49583694396574 12.0
vertex 92.29999999999997 105.50416305603423 12.0
endloop
endfacet
facet normal -0.4999999999999992 0.5000000000000012 0.7071067811865472
outer loop
vertex 92.29999999999997 105.50416305603423 12.0
vertex 93.75025253169416 109.49999999999999 10.200000000000001
vertex 90.49999999999997 106.2497474683058 10.200000000000001
endloop
endfacet
facet normal -0.4999999999999992 0.5000000000000012 0.7071067811865472
outer loop
vertex 93.75025253169416 109.49999999999999 10.200000000000001
vertex 92.29999999999997 105.50416305603423 12.0
vertex 94.49583694396573 107.69999999999999 12.0
endloop
endfacet
facet normal -1.095314937009837e-18 0.7071067811865481 0.707106781186547
outer loop
vertex 94.49583694396573 107.69999999999999 12.0
vertex 148.2497474683058 109.49999999999999 10.200000000000001
vertex 93.75025253169416 109.49999999999999 10.200000000000001
endloop
endfacet
facet normal -1.095314937009837e-18 0.7071067811865481 0.707106781186547
outer loop
vertex 148.2497474683058 109.49999999999999 10.200000000000001
vertex 94.49583694396573 107.69999999999999 12.0
vertex 147.5041630560342 107.69999999999999 12.0
endloop
endfacet
facet normal 0.5000000000000021 0.49999999999999817 0.7071067811865474
outer loop
vertex 149.69999999999993 105.50416305603424 12.0
vertex 148.2497474683058 109.49999999999999 10.200000000000001
vertex 147.5041630560342 107.69999999999999 12.0
endloop
endfacet
facet normal 0.5000000000000021 0.49999999999999817 0.7071067811865474
outer loop
vertex 148.2497474683058 109.49999999999999 10.200000000000001
vertex 149.69999999999993 105.50416305603424 12.0
vertex 151.49999999999991 106.24974746830581 10.200000000000001
endloop
endfacet
facet normal 0.7071067811865481 -8.122375324216076e-33 0.707106781186547
outer loop
vertex 151.49999999999991 106.24974746830581 10.200000000000001
vertex 149.69999999999993 70.49583694396573 12.0
vertex 151.49999999999991 69.75025253169416 10.200000000000001
endloop
endfacet
facet normal 0.7071067811865481 -8.122375324216076e-33 0.707106781186547
outer loop
vertex 149.69999999999993 70.49583694396573 12.0
vertex 151.49999999999991 106.24974746830581 10.200000000000001
vertex 149.69999999999993 105.50416305603424 12.0
endloop
endfacet
facet normal -1.0 0.0 0.0
outer loop
vertex 148.49999999999994 55.00710678118654 12.0
vertex 148.49999999999994 20.992893218813446 3.0
vertex 148.49999999999994 20.992893218813446 12.0
endloop
endfacet
facet normal -1.0 0.0 0.0
outer loop
vertex 148.49999999999994 20.992893218813446 3.0
vertex 148.49999999999994 55.00710678118654 12.0
vertex 148.49999999999994 55.00710678118654 3.0
endloop
endfacet
facet normal 0.70710678118655 -0.7071067811865451 -0.0
outer loop
vertex 151.49999999999991 69.75025253169416 1.7999999999999998
vertex 148.2497474683058 66.49999999999999 10.200000000000001
vertex 148.2497474683058 66.49999999999999 1.7999999999999998
endloop
endfacet
facet normal 0.70710678118655 -0.7071067811865451 -0.0
outer loop
vertex 148.2497474683058 66.49999999999999 10.200000000000001
vertex 151.49999999999991 69.75025253169416 1.7999999999999998
vertex 151.49999999999991 69.75025253169416 10.200000000000001
endloop
endfacet
facet normal -0.7071067811865475 -0.7071067811865477 0.0
outer loop
vertex 148.49999999999994 55.00710678118654 12.0
vertex 147.00710678118648 56.499999999999986 3.0
vertex 148.49999999999994 55.00710678118654 3.0
endloop
endfacet
facet normal -0.7071067811865475 -0.7071067811865477 0.0
outer loop
vertex 147.00710678118648 56.499999999999986 3.0
vertex 148.49999999999994 55.00710678118654 12.0
vertex 147.00710678118648 56.499999999999986 12.0
endloop
endfacet
facet normal 0.5000000000000018 -0.4999999999999989 0.707106781186547
outer loop
vertex 148.2497474683058 16.499999999999993 10.200000000000001
vertex 149.69999999999993 20.495836943965728 12.0
vertex 147.5041630560342 18.29999999999999 12.0
endloop
endfacet
facet normal 0.5000000000000018 -0.4999999999999989 0.707106781186547
outer loop
vertex 149.69999999999993 20.495836943965728 12.0
vertex 148.2497474683058 16.499999999999993 10.200000000000001
vertex 151.49999999999991 19.750252531694155 10.200000000000001
endloop
endfacet
facet normal 0.0 -1.0 0.0
outer loop
vertex 148.2497474683058 66.49999999999999 10.200000000000001
vertex 93.75025253169413 66.49999999999999 1.7999999999999998
vertex 148.2497474683058 66.49999999999999 1.7999999999999998
endloop
endfacet
facet normal 0.0 -1.0 0.0
outer loop
vertex 93.75025253169413 66.49999999999999 1.7999999999999998
vertex 148.2497474683058 66.49999999999999 10.200000000000001
vertex 93.75025253169413 66.49999999999999 10.200000000000001
endloop
endfacet
facet normal -0.7071067811865489 0.7071067811865461 0.0
outer loop
vertex 148.49999999999994 20.992893218813446 12.0
vertex 147.00710678118648 19.499999999999996 3.0
vertex 147.00710678118648 19.499999999999996 12.0
endloop
endfacet
facet normal -0.7071067811865489 0.7071067811865461 0.0
outer loop
vertex 147.00710678118648 19.499999999999996 3.0
vertex 148.49999999999994 20.992893218813446 12.0
vertex 148.49999999999994 20.992893218813446 3.0
endloop
endfacet
facet normal -0.7071067811865493 -0.7071067811865457 4.710569431940203e-16
outer loop
vertex 90.49999999999997 69.75025253169417 10.200000000000001
vertex 93.75025253169413 66.49999999999999 1.7999999999999998
vertex 93.75025253169413 66.49999999999999 10.200000000000001
endloop
endfacet
facet normal -0.7071067811865493 -0.7071067811865457 4.710569431940203e-16
outer loop
vertex 93.75025253169413 66.49999999999999 1.7999999999999998
vertex 90.49999999999997 69.75025253169417 10.200000000000001
vertex 90.49999999999997 69.75025253169416 1.7999999999999998
endloop
endfacet
facet normal 0.0 0.0 1.0
outer loop
vertex 94.99289321881342 19.499999999999996 3.0
vertex 93.49999999999997 55.00710678118654 3.0
vertex 93.49999999999997 20.992893218813446 3.0
endloop
endfacet
facet normal 0.0 0.0 1.0
outer loop
vertex 93.49999999999997 55.00710678118654 3.0
vertex 94.99289321881342 19.499999999999996 3.0
vertex 94.99289321881342 56.499999999999986 3.0
endloop
endfacet
facet normal 0.0 0.0 1.0
outer loop
vertex 94.99289321881342 56.499999999999986 3.0
vertex 94.99289321881342 19.499999999999996 3.0
vertex 147.00710678118648 19.499999999999996 3.0
endloop
endfacet
facet normal 0.0 0.0 1.0
outer loop
vertex 94.99289321881342 56.499999999999986 3.0
vertex 147.00710678118648 19.499999999999996 3.0
vertex 147.00710678118648 56.499999999999986 3.0
endloop
endfacet
facet normal 0.0 0.0 1.0
outer loop
vertex 147.00710678118648 56.499999999999986 3.0
vertex 147.00710678118648 19.499999999999996 3.0
vertex 148.49999999999994 20.992893218813446 3.0
endloop
endfacet
facet normal 0.0 0.0 1.0
outer loop
vertex 147.00710678118648 56.499999999999986 3.0
vertex 148.49999999999994 20.992893218813446 3.0
vertex 148.49999999999994 55.00710678118654 3.0
endloop
endfacet
facet normal 0.7071067811865482 0.7071067811865469 0.0
outer loop
vertex 93.49999999999997 20.992893218813446 3.0
vertex 94.99289321881342 19.499999999999996 12.0
vertex 94.99289321881342 19.499999999999996 3.0
endloop
endfacet
facet normal 0.7071067811865482 0.7071067811865469 0.0
outer loop
vertex 94.99289321881342 19.499999999999996 12.0
vertex 93.49999999999997 20.992893218813446 3.0
vertex 93.49999999999997 20.992893218813446 12.0
endloop
endfacet
facet normal -1.0 0.0 0.0
outer loop
vertex 90.49999999999997 69.75025253169417 10.200000000000001
vertex 90.49999999999997 106.2497474683058 1.7999999999999998
vertex 90.49999999999997 69.75025253169416 1.7999999999999998
endloop
endfacet
facet normal -1.0 0.0 0.0
outer loop
vertex 90.49999999999997 106.2497474683058 1.7999999999999998
vertex 90.49999999999997 69.75025253169417 10.200000000000001
vertex 90.49999999999997 106.2497474683058 10.200000000000001
endloop
endfacet
facet normal 1.0 0.0 0.0
outer loop
vertex 93.49999999999997 55.00710678118654 3.0
vertex 93.49999999999997 20.992893218813446 12.0
vertex 93.49999999999997 20.992893218813446 3.0
endloop
endfacet
facet normal 1.0 0.0 0.0
outer loop
vertex 93.49999999999997 20.992893218813446 12.0
vertex 93.49999999999997 55.00710678118654 3.0
vertex 93.49999999999997 55.00710678118654 12.0
endloop
endfacet
facet normal -0.7071067811865475 0.7071067811865475 -0.0
outer loop
vertex 93.75025253169416 109.49999999999999 10.200000000000001
vertex 90.49999999999997 106.2497474683058 1.7999999999999998
vertex 90.49999999999997 106.2497474683058 10.200000000000001
endloop
endfacet
facet normal -0.7071067811865475 0.7071067811865475 -0.0
outer loop
vertex 90.49999999999997 106.2497474683058 1.7999999999999998
vertex 93.75025253169416 109.49999999999999 10.200000000000001
vertex 93.75025253169416 109.49999999999999 1.7999999999999998
endloop
endfacet
facet normal 0.0 1.0 0.0
outer loop
vertex 94.99289321881342 19.499999999999996 12.0
vertex 147.00710678118648 19.499999999999996 3.0
vertex 94.99289321881342 19.499999999999996 3.0
endloop
endfacet
facet normal 0.0 1.0 0.0
outer loop
vertex 147.00710678118648 19.499999999999996 3.0
vertex 94.99289321881342 19.499999999999996 12.0
vertex 147.00710678118648 19.499999999999996 12.0
endloop
endfacet
facet normal -0.0 1.0 -0.0
outer loop
vertex 93.75025253169416 109.49999999999999 10.200000000000001
vertex 148.2497474683058 109.49999999999999 1.7999999999999998
vertex 93.75025253169416 109.49999999999999 1.7999999999999998
endloop
endfacet
facet normal -0.0 1.0 -0.0
outer loop
vertex 148.2497474683058 109.49999999999999 1.7999999999999998
vertex 93.75025253169416 109.49999999999999 10.200000000000001
vertex 148.2497474683058 109.49999999999999 10.200000000000001
endloop
endfacet
facet normal 0.0 -1.0 0.0
outer loop
vertex 147.00710678118648 56.499999999999986 12.0
vertex 94.99289321881342 56.499999999999986 3.0
vertex 147.00710678118648 56.499999999999986 3.0
endloop
endfacet
facet normal 0.0 -1.0 0.0
outer loop
vertex 94.99289321881342 56.499999999999986 3.0
vertex 147.00710678118648 56.499999999999986 12.0
vertex 94.99289321881342 56.499999999999986 12.0
endloop
endfacet
facet normal 0.7071067811865512 0.7071067811865439 -9.533295278926576e-16
outer loop
vertex 148.2497474683058 109.49999999999999 1.7999999999999998
vertex 151.49999999999991 106.24974746830581 10.200000000000001
vertex 151.49999999999991 106.2497474683058 1.7999999999999998
endloop
endfacet
facet normal 0.7071067811865512 0.7071067811865439 -9.533295278926576e-16
outer loop
vertex 151.49999999999991 106.24974746830581 10.200000000000001
vertex 148.2497474683058 109.49999999999999 1.7999999999999998
vertex 148.2497474683058 109.49999999999999 10.200000000000001
endloop
endfacet
facet normal 0.7071067811865476 -0.7071067811865476 0.0
outer loop
vertex 94.99289321881342 56.499999999999986 3.0
vertex 93.49999999999997 55.00710678118654 12.0
vertex 93.49999999999997 55.00710678118654 3.0
endloop
endfacet
facet normal 0.7071067811865476 -0.7071067811865476 0.0
outer loop
vertex 93.49999999999997 55.00710678118654 12.0
vertex 94.99289321881342 56.499999999999986 3.0
vertex 94.99289321881342 56.499999999999986 12.0
endloop
endfacet
facet normal 1.0 -0.0 -0.0
outer loop
vertex 151.49999999999991 106.2497474683058 1.7999999999999998
vertex 151.49999999999991 69.75025253169416 10.200000000000001
vertex 151.49999999999991 69.75025253169416 1.7999999999999998
endloop
endfacet
facet normal 1.0 -0.0 -0.0
outer loop
vertex 151.49999999999991 69.75025253169416 10.200000000000001
vertex 151.49999999999991 106.2497474683058 1.7999999999999998
vertex 151.49999999999991 106.24974746830581 10.200000000000001
endloop
endfacet
facet normal 0.0 0.0 -1.0
outer loop
vertex 94.49583694396573 107.69999999999999 0.0
vertex 92.29999999999997 70.49583694396574 0.0
vertex 92.29999999999997 105.50416305603423 0.0
endloop
endfacet
facet normal 0.0 0.0 -1.0
outer loop
vertex 92.29999999999997 70.49583694396574 0.0
vertex 94.49583694396573 107.69999999999999 0.0
vertex 94.49583694396571 68.29999999999998 0.0
endloop
endfacet
facet normal 0.0 0.0 -1.0
outer loop
vertex 94.49583694396571 68.29999999999998 0.0
vertex 94.49583694396573 107.69999999999999 0.0
vertex 147.5041630560342 68.29999999999998 0.0
endloop
endfacet
facet normal 0.0 0.0 -1.0
outer loop
vertex 147.5041630560342 68.29999999999998 0.0
vertex 94.49583694396573 107.69999999999999 0.0
vertex 147.5041630560342 107.69999999999999 0.0
endloop
endfacet
facet normal 0.0 0.0 -1.0
outer loop
vertex 147.5041630560342 68.29999999999998 0.0
vertex 147.5041630560342 107.69999999999999 0.0
vertex 149.69999999999993 70.49583694396573 0.0
endloop
endfacet
facet normal 0.0 0.0 -1.0
outer loop
vertex 149.69999999999993 70.49583694396573 0.0
vertex 147.5041630560342 107.69999999999999 0.0
vertex 149.69999999999993 105.50416305603424 0.0
endloop
endfacet
facet normal 0.0 0.0 1.0
outer loop
vertex 92.29999999999997 20.49583694396575 12.0
vertex 93.49999999999997 20.992893218813446 12.0
vertex 92.29999999999997 55.50416305603422 12.0
endloop
endfacet
facet normal 0.0 0.0 1.0
outer loop
vertex 93.49999999999997 20.992893218813446 12.0
vertex 92.29999999999997 20.49583694396575 12.0
vertex 94.4958369439657 18.29999999999999 12.0
endloop
endfacet
facet normal 0.0 0.0 1.0
outer loop
vertex 93.49999999999997 20.992893218813446 12.0
vertex 94.4958369439657 18.29999999999999 12.0
vertex 94.99289321881342 19.499999999999996 12.0
endloop
endfacet
facet normal 0.0 0.0 1.0
outer loop
vertex 94.99289321881342 19.499999999999996 12.0
vertex 94.4958369439657 18.29999999999999 12.0
vertex 147.5041630560342 18.29999999999999 12.0
endloop
endfacet
facet normal 0.0 0.0 1.0
outer loop
vertex 94.99289321881342 19.499999999999996 12.0
vertex 147.5041630560342 18.29999999999999 12.0
vertex 147.00710678118648 19.499999999999996 12.0
endloop
endfacet
facet normal 0.0 0.0 1.0
outer loop
vertex 147.00710678118648 19.499999999999996 12.0
vertex 147.5041630560342 18.29999999999999 12.0
vertex 148.49999999999994 20.992893218813446 12.0
endloop
endfacet
facet normal 0.0 0.0 1.0
outer loop
vertex 148.49999999999994 20.992893218813446 12.0
vertex 147.5041630560342 18.29999999999999 12.0
vertex 149.69999999999993 20.495836943965728 12.0
endloop
endfacet
facet normal 0.0 0.0 1.0
outer loop
vertex 148.49999999999994 20.992893218813446 12.0
vertex 149.69999999999993 20.495836943965728 12.0
vertex 148.49999999999994 55.00710678118654 12.0
endloop
endfacet
facet normal 0.0 0.0 1.0
outer loop
vertex 92.29999999999997 55.50416305603422 12.0
vertex 93.49999999999997 55.00710678118654 12.0
vertex 94.49583694396573 57.69999999999998 12.0
endloop
endfacet
facet normal 0.0 0.0 1.0
outer loop
vertex 93.49999999999997 55.00710678118654 12.0
vertex 92.29999999999997 55.50416305603422 12.0
vertex 93.49999999999997 20.992893218813446 12.0
endloop
endfacet
facet normal 0.0 0.0 1.0
outer loop
vertex 94.49583694396573 57.69999999999998 12.0
vertex 93.49999999999997 55.00710678118654 12.0
vertex 94.99289321881342 56.499999999999986 12.0
endloop
endfacet
facet normal 0.0 0.0 1.0
outer loop
vertex 94.49583694396573 57.69999999999998 12.0
vertex 94.99289321881342 56.499999999999986 12.0
vertex 147.5041630560342 57.69999999999998 12.0
endloop
endfacet
facet normal 0.0 0.0 1.0
outer loop
vertex 147.5041630560342 57.69999999999998 12.0
vertex 94.99289321881342 56.499999999999986 12.0
vertex 147.00710678118648 56.499999999999986 12.0
endloop
endfacet
facet normal 0.0 0.0 1.0
outer loop
vertex 147.5041630560342 57.69999999999998 12.0
vertex 147.00710678118648 56.499999999999986 12.0
vertex 148.49999999999994 55.00710678118654 12.0
endloop
endfacet
facet normal 0.0 0.0 1.0
outer loop
vertex 147.5041630560342 57.69999999999998 12.0
vertex 148.49999999999994 55.00710678118654 12.0
vertex 149.69999999999993 55.504163056034244 12.0
endloop
endfacet
facet normal 0.0 0.0 1.0
outer loop
vertex 149.69999999999993 55.504163056034244 12.0
vertex 148.49999999999994 55.00710678118654 12.0
vertex 149.69999999999993 20.495836943965728 12.0
endloop
endfacet
facet normal 1.8620353929166923e-17 -0.7071067811865472 0.7071067811865478
outer loop
vertex 148.2497474683058 16.499999999999993 10.200000000000001
vertex 94.4958369439657 18.29999999999999 12.0
vertex 93.75025253169413 16.499999999999993 10.200000000000001
endloop
endfacet
facet normal 1.8620353929166923e-17 -0.7071067811865472 0.7071067811865478
outer loop
vertex 94.4958369439657 18.29999999999999 12.0
vertex 148.2497474683058 16.499999999999993 10.200000000000001
vertex 147.5041630560342 18.29999999999999 12.0
endloop
endfacet
facet normal 0.5000000000000004 -0.49999999999999806 -0.7071067811865487
outer loop
vertex 149.69999999999993 70.49583694396573 0.0
vertex 148.2497474683058 66.49999999999999 1.7999999999999998
vertex 147.5041630560342 68.29999999999998 0.0
endloop
endfacet
facet normal 0.5000000000000004 -0.49999999999999806 -0.7071067811865487
outer loop
vertex 148.2497474683058 66.49999999999999 1.7999999999999998
vertex 149.69999999999993 70.49583694396573 0.0
vertex 151.49999999999991 69.75025253169416 1.7999999999999998
endloop
endfacet
facet normal -4.161830362704335e-33 -0.7071067811865481 -0.7071067811865468
outer loop
vertex 148.2497474683058 66.49999999999999 1.7999999999999998
vertex 94.49583694396571 68.29999999999998 0.0
vertex 147.5041630560342 68.29999999999998 0.0
endloop
endfacet
facet normal -4.161830362704335e-33 -0.7071067811865481 -0.7071067811865468
outer loop
vertex 94.49583694396571 68.29999999999998 0.0
vertex 148.2497474683058 66.49999999999999 1.7999999999999998
vertex 93.75025253169413 66.49999999999999 1.7999999999999998
endloop
endfacet
facet normal -0.5000000000000003 -0.49999999999999906 -0.7071067811865479
outer loop
vertex 92.29999999999997 70.49583694396574 0.0
vertex 93.75025253169413 66.49999999999999 1.7999999999999998
vertex 90.49999999999997 69.75025253169416 1.7999999999999998
endloop
endfacet
facet normal -0.5000000000000003 -0.49999999999999906 -0.7071067811865479
outer loop
vertex 93.75025253169413 66.49999999999999 1.7999999999999998
vertex 92.29999999999997 70.49583694396574 0.0
vertex 94.49583694396571 68.29999999999998 0.0
endloop
endfacet
facet normal -0.7071067811865481 -2.4751799000881543e-18 -0.7071067811865468
outer loop
vertex 90.49999999999997 106.2497474683058 1.7999999999999998
vertex 92.29999999999997 70.49583694396574 0.0
vertex 90.49999999999997 69.75025253169416 1.7999999999999998
endloop
endfacet
facet normal -0.7071067811865481 -2.4751799000881543e-18 -0.7071067811865468
outer loop
vertex 92.29999999999997 70.49583694396574 0.0
vertex 90.49999999999997 106.2497474683058 1.7999999999999998
vertex 92.29999999999997 105.50416305603423 0.0
endloop
endfacet
facet normal -0.5000000000000002 0.5000000000000002 -0.707106781186547
outer loop
vertex 93.75025253169416 109.49999999999999 1.7999999999999998
vertex 92.29999999999997 105.50416305603423 0.0
vertex 90.49999999999997 106.2497474683058 1.7999999999999998
endloop
endfacet
facet normal -0.5000000000000002 0.5000000000000002 -0.707106781186547
outer loop
vertex 92.29999999999997 105.50416305603423 0.0
vertex 93.75025253169416 109.49999999999999 1.7999999999999998
vertex 94.49583694396573 107.69999999999999 0.0
endloop
endfacet
facet normal -1.0953149370098215e-18 0.7071067811865482 -0.7071067811865468
outer loop
vertex 93.75025253169416 109.49999999999999 1.7999999999999998
vertex 147.5041630560342 107.69999999999999 0.0
vertex 94.49583694396573 107.69999999999999 0.0
endloop
endfacet
facet normal -1.0953149370098215e-18 0.7071067811865482 -0.7071067811865468
outer loop
vertex 147.5041630560342 107.69999999999999 0.0
vertex 93.75025253169416 109.49999999999999 1.7999999999999998
vertex 148.2497474683058 109.49999999999999 1.7999999999999998
endloop
endfacet
facet normal 0.5000000000000044 0.4999999999999981 -0.7071067811865458
outer loop
vertex 148.2497474683058 109.49999999999999 1.7999999999999998
vertex 149.69999999999993 105.50416305603424 0.0
vertex 147.5041630560342 107.69999999999999 0.0
endloop
endfacet
facet normal 0.5000000000000044 0.4999999999999981 -0.7071067811865458
outer loop
vertex 149.69999999999993 105.50416305603424 0.0
vertex 148.2497474683058 109.49999999999999 1.7999999999999998
vertex 151.49999999999991 106.2497474683058 1.7999999999999998
endloop
endfacet
facet normal 0.7071067811865481 -2.599160103749144e-31 -0.7071067811865468
outer loop
vertex 149.69999999999993 70.49583694396573 0.0
vertex 151.49999999999991 106.2497474683058 1.7999999999999998
vertex 151.49999999999991 69.75025253169416 1.7999999999999998
endloop
endfacet
facet normal 0.7071067811865481 -2.599160103749144e-31 -0.7071067811865468
outer loop
vertex 151.49999999999991 106.2497474683058 1.7999999999999998
vertex 149.69999999999993 70.49583694396573 0.0
vertex 149.69999999999993 105.50416305603424 0.0
endloop
endfacet
facet normal -0.5000000000000012 -0.4999999999999986 0.7071067811865476
outer loop
vertex 93.75025253169413 16.499999999999993 10.200000000000001
vertex 92.29999999999997 20.49583694396575 12.0
vertex 90.49999999999997 19.750252531694176 10.200000000000001
endloop
endfacet
facet normal -0.5000000000000012 -0.4999999999999986 0.7071067811865476
outer loop
vertex 92.29999999999997 20.49583694396575 12.0
vertex 93.75025253169413 16.499999999999993 10.200000000000001
vertex 94.4958369439657 18.29999999999999 12.0
endloop
endfacet
facet normal -0.7071067811865481 0.0 0.707106781186547
outer loop
vertex 92.29999999999997 20.49583694396575 12.0
vertex 90.49999999999997 56.2497474683058 10.200000000000001
vertex 90.49999999999997 19.750252531694176 10.200000000000001
endloop
endfacet
facet normal -0.7071067811865481 0.0 0.707106781186547
outer loop
vertex 90.49999999999997 56.2497474683058 10.200000000000001
vertex 92.29999999999997 20.49583694396575 12.0
vertex 92.29999999999997 55.50416305603422 12.0
endloop
endfacet
facet normal -0.4999999999999992 0.5000000000000012 0.7071067811865472
outer loop
vertex 92.29999999999997 55.50416305603422 12.0
vertex 93.75025253169416 59.49999999999998 10.200000000000001
vertex 90.49999999999997 56.2497474683058 10.200000000000001
endloop
endfacet
facet normal -0.4999999999999992 0.5000000000000012 0.7071067811865472
outer loop
vertex 93.75025253169416 59.49999999999998 10.200000000000001
vertex 92.29999999999997 55.50416305603422 12.0
vertex 94.49583694396573 57.69999999999998 12.0
endloop
endfacet
facet normal -1.095314937009837e-18 0.7071067811865481 0.707106781186547
outer loop
vertex 94.49583694396573 57.69999999999998 12.0
vertex 148.2497474683058 59.49999999999998 10.200000000000001
vertex 93.75025253169416 59.49999999999998 10.200000000000001
endloop
endfacet
facet normal -1.095314937009837e-18 0.7071067811865481 0.707106781186547
outer loop
vertex 148.2497474683058 59.49999999999998 10.200000000000001
vertex 94.49583694396573 57.69999999999998 12.0
vertex 147.5041630560342 57.69999999999998 12.0
endloop
endfacet
facet normal 0.5000000000000021 0.49999999999999817 0.7071067811865474
outer loop
vertex 149.69999999999993 55.504163056034244 12.0
vertex 148.2497474683058 59.49999999999998 10.200000000000001
vertex 147.5041630560342 57.69999999999998 12.0
endloop
endfacet
facet normal 0.5000000000000021 0.49999999999999817 0.7071067811865474
outer loop
vertex 148.2497474683058 59.49999999999998 10.200000000000001
vertex 149.69999999999993 55.504163056034244 12.0
vertex 151.49999999999991 56.24974746830582 10.200000000000001
endloop
endfacet
facet normal 0.7071067811865481 -8.122375324216076e-33 0.707106781186547
outer loop
vertex 151.49999999999991 56.24974746830582 10.200000000000001
vertex 149.69999999999993 20.495836943965728 12.0
vertex 151.49999999999991 19.750252531694155 10.200000000000001
endloop
endfacet
facet normal 0.7071067811865481 -8.122375324216076e-33 0.707106781186547
outer loop
vertex 149.69999999999993 20.495836943965728 12.0
vertex 151.49999999999991 56.24974746830582 10.200000000000001
vertex 149.69999999999993 55.504163056034244 12.0
endloop
endfacet
facet normal 0.70710678118655 -0.7071067811865451 0.0
outer loop
vertex 151.49999999999991 19.750252531694155 1.7999999999999998
vertex 148.2497474683058 16.499999999999993 10.200000000000001
vertex 148.2497474683058 16.499999999999993 1.7999999999999998
endloop
endfacet
facet normal 0.70710678118655 -0.7071067811865451 0.0
outer loop
vertex 148.2497474683058 16.499999999999993 10.200000000000001
vertex 151.49999999999991 19.750252531694155 1.7999999999999998
vertex 151.49999999999991 19.750252531694155 10.200000000000001
endloop
endfacet
facet normal 0.0 -1.0 0.0
outer loop
vertex 148.2497474683058 16.499999999999993 10.200000000000001
vertex 93.75025253169413 16.499999999999993 1.7999999999999998
vertex 148.2497474683058 16.499999999999993 1.7999999999999998
endloop
endfacet
facet normal 0.0 -1.0 0.0
outer loop
vertex 93.75025253169413 16.499999999999993 1.7999999999999998
vertex 148.2497474683058 16.499999999999993 10.200000000000001
vertex 93.75025253169413 16.499999999999993 10.200000000000001
endloop
endfacet
facet normal -0.7071067811865493 -0.7071067811865457 4.710569431940203e-16
outer loop
vertex 90.49999999999997 19.750252531694176 10.200000000000001
vertex 93.75025253169413 16.499999999999993 1.7999999999999998
vertex 93.75025253169413 16.499999999999993 10.200000000000001
endloop
endfacet
facet normal -0.7071067811865493 -0.7071067811865457 4.710569431940203e-16
outer loop
vertex 93.75025253169413 16.499999999999993 1.7999999999999998
vertex 90.49999999999997 19.750252531694176 10.200000000000001
vertex 90.49999999999997 19.750252531694166 1.7999999999999998
endloop
endfacet
facet normal -1.0 0.0 0.0
outer loop
vertex 90.49999999999997 19.750252531694176 10.200000000000001
vertex 90.49999999999997 56.2497474683058 1.7999999999999998
vertex 90.49999999999997 19.750252531694166 1.7999999999999998
endloop
endfacet
facet normal -1.0 0.0 0.0
outer loop
vertex 90.49999999999997 56.2497474683058 1.7999999999999998
vertex 90.49999999999997 19.750252531694176 10.200000000000001
vertex 90.49999999999997 56.2497474683058 10.200000000000001
endloop
endfacet
facet normal -0.7071067811865476 0.7071067811865476 0.0
outer loop
vertex 93.75025253169416 59.49999999999998 10.200000000000001
vertex 90.49999999999997 56.2497474683058 1.7999999999999998
vertex 90.49999999999997 56.2497474683058 10.200000000000001
endloop
endfacet
facet normal -0.7071067811865476 0.7071067811865476 0.0
outer loop
vertex 90.49999999999997 56.2497474683058 1.7999999999999998
vertex 93.75025253169416 59.49999999999998 10.200000000000001
vertex 93.75025253169416 59.49999999999998 1.7999999999999998
endloop
endfacet
facet normal 0.0 1.0 0.0
outer loop
vertex 93.75025253169416 59.49999999999998 10.200000000000001
vertex 148.2497474683058 59.49999999999998 1.7999999999999998
vertex 93.75025253169416 59.49999999999998 1.7999999999999998
endloop
endfacet
facet normal 0.0 1.0 0.0
outer loop
vertex 148.2497474683058 59.49999999999998 1.7999999999999998
vertex 93.75025253169416 59.49999999999998 10.200000000000001
vertex 148.2497474683058 59.49999999999998 10.200000000000001
endloop
endfacet
facet normal 0.7071067811865512 0.7071067811865439 -9.533295278926576e-16
outer loop
vertex 148.2497474683058 59.49999999999998 1.7999999999999998
vertex 151.49999999999991 56.24974746830582 10.200000000000001
vertex 151.49999999999991 56.2497474683058 1.7999999999999998
endloop
endfacet
facet normal 0.7071067811865512 0.7071067811865439 -9.533295278926576e-16
outer loop
vertex 151.49999999999991 56.24974746830582 10.200000000000001
vertex 148.2497474683058 59.49999999999998 1.7999999999999998
vertex 148.2497474683058 59.49999999999998 10.200000000000001
endloop
endfacet
facet normal 1.0 0.0 0.0
outer loop
vertex 151.49999999999991 56.2497474683058 1.7999999999999998
vertex 151.49999999999991 19.750252531694155 10.200000000000001
vertex 151.49999999999991 19.750252531694155 1.7999999999999998
endloop
endfacet
facet normal 1.0 0.0 0.0
outer loop
vertex 151.49999999999991 19.750252531694155 10.200000000000001
vertex 151.49999999999991 56.2497474683058 1.7999999999999998
vertex 151.49999999999991 56.24974746830582 10.200000000000001
endloop
endfacet
facet normal 0.0 0.0 -1.0
outer loop
vertex 94.49583694396573 57.69999999999998 0.0
vertex 92.29999999999997 20.495836943965738 0.0
vertex 92.29999999999997 55.50416305603422 0.0
endloop
endfacet
facet normal 0.0 0.0 -1.0
outer loop
vertex 92.29999999999997 20.495836943965738 0.0
vertex 94.49583694396573 57.69999999999998 0.0
vertex 94.49583694396571 18.29999999999999 0.0
endloop
endfacet
facet normal 0.0 0.0 -1.0
outer loop
vertex 94.49583694396571 18.29999999999999 0.0
vertex 94.49583694396573 57.69999999999998 0.0
vertex 147.5041630560342 18.29999999999999 0.0
endloop
endfacet
facet normal 0.0 0.0 -1.0
outer loop
vertex 147.5041630560342 18.29999999999999 0.0
vertex 94.49583694396573 57.69999999999998 0.0
vertex 147.5041630560342 57.69999999999998 0.0
endloop
endfacet
facet normal 0.0 0.0 -1.0
outer loop
vertex 147.5041630560342 18.29999999999999 0.0
vertex 147.5041630560342 57.69999999999998 0.0
vertex 149.69999999999993 20.495836943965728 0.0
endloop
endfacet
facet normal 0.0 0.0 -1.0
outer loop
vertex 149.69999999999993 20.495836943965728 0.0
vertex 147.5041630560342 57.69999999999998 0.0
vertex 149.69999999999993 55.504163056034244 0.0
endloop
endfacet
facet normal 0.5000000000000004 -0.49999999999999806 -0.7071067811865487
outer loop
vertex 149.69999999999993 20.495836943965728 0.0
vertex 148.2497474683058 16.499999999999993 1.7999999999999998
vertex 147.5041630560342 18.29999999999999 0.0
endloop
endfacet
facet normal 0.5000000000000004 -0.49999999999999806 -0.7071067811865487
outer loop
vertex 148.2497474683058 16.499999999999993 1.7999999999999998
vertex 149.69999999999993 20.495836943965728 0.0
vertex 151.49999999999991 19.750252531694155 1.7999999999999998
endloop
endfacet
facet normal -4.1618303627043356e-33 -0.7071067811865482 -0.7071067811865469
outer loop
vertex 148.2497474683058 16.499999999999993 1.7999999999999998
vertex 94.49583694396571 18.29999999999999 0.0
vertex 147.5041630560342 18.29999999999999 0.0
endloop
endfacet
facet normal -4.1618303627043356e-33 -0.7071067811865482 -0.7071067811865469
outer loop
vertex 94.49583694396571 18.29999999999999 0.0
vertex 148.2497474683058 16.499999999999993 1.7999999999999998
vertex 93.75025253169413 16.499999999999993 1.7999999999999998
endloop
endfacet
facet normal -0.5000000000000003 -0.49999999999999906 -0.7071067811865479
outer loop
vertex 92.29999999999997 20.495836943965738 0.0
vertex 93.75025253169413 16.499999999999993 1.7999999999999998
vertex 90.49999999999997 19.750252531694166 1.7999999999999998
endloop
endfacet
facet normal -0.5000000000000003 -0.49999999999999906 -0.7071067811865479
outer loop
vertex 93.75025253169413 16.499999999999993 1.7999999999999998
vertex 92.29999999999997 20.495836943965738 0.0
vertex 94.49583694396571 18.29999999999999 0.0
endloop
endfacet
facet normal -0.7071067811865482 -2.4751799000881547e-18 -0.7071067811865469
outer loop
vertex 90.49999999999997 56.2497474683058 1.7999999999999998
vertex 92.29999999999997 20.495836943965738 0.0
vertex 90.49999999999997 19.750252531694166 1.7999999999999998
endloop
endfacet
facet normal -0.7071067811865482 -2.4751799000881547e-18 -0.7071067811865469
outer loop
vertex 92.29999999999997 20.495836943965738 0.0
vertex 90.49999999999997 56.2497474683058 1.7999999999999998
vertex 92.29999999999997 55.50416305603422 0.0
endloop
endfacet
facet normal -0.5000000000000003 0.5000000000000003 -0.7071067811865471
outer loop
vertex 93.75025253169416 59.49999999999998 1.7999999999999998
vertex 92.29999999999997 55.50416305603422 0.0
vertex 90.49999999999997 56.2497474683058 1.7999999999999998
endloop
endfacet
facet normal -0.5000000000000003 0.5000000000000003 -0.7071067811865471
outer loop
vertex 92.29999999999997 55.50416305603422 0.0
vertex 93.75025253169416 59.49999999999998 1.7999999999999998
vertex 94.49583694396573 57.69999999999998 0.0
endloop
endfacet
facet normal -1.0953149370098215e-18 0.7071067811865482 -0.7071067811865468
outer loop
vertex 93.75025253169416 59.49999999999998 1.7999999999999998
vertex 147.5041630560342 57.69999999999998 0.0
vertex 94.49583694396573 57.69999999999998 0.0
endloop
endfacet
facet normal -1.0953149370098215e-18 0.7071067811865482 -0.7071067811865468
outer loop
vertex 147.5041630560342 57.69999999999998 0.0
vertex 93.75025253169416 59.49999999999998 1.7999999999999998
vertex 148.2497474683058 59.49999999999998 1.7999999999999998
endloop
endfacet
facet normal 0.5000000000000044 0.4999999999999981 -0.7071067811865458
outer loop
vertex 148.2497474683058 59.49999999999998 1.7999999999999998
vertex 149.69999999999993 55.504163056034244 0.0
vertex 147.5041630560342 57.69999999999998 0.0
endloop
endfacet
facet normal 0.5000000000000044 0.4999999999999981 -0.7071067811865458
outer loop
vertex 149.69999999999993 55.504163056034244 0.0
vertex 148.2497474683058 59.49999999999998 1.7999999999999998
vertex 151.49999999999991 56.2497474683058 1.7999999999999998
endloop
endfacet
facet normal 0.7071067811865482 -2.5991601037491446e-31 -0.7071067811865469
outer loop
vertex 149.69999999999993 20.495836943965728 0.0
vertex 151.49999999999991 56.2497474683058 1.7999999999999998
vertex 151.49999999999991 19.750252531694155 1.7999999999999998
endloop
endfacet
facet normal 0.7071067811865482 -2.5991601037491446e-31 -0.7071067811865469
outer loop
vertex 151.49999999999991 56.2497474683058 1.7999999999999998
vertex 149.69999999999993 20.495836943965728 0.0
vertex 149.69999999999993 55.504163056034244 0.0
endloop
endfacet
endsolid PSU BOX
