solid PSU BOX
facet normal -0.0 -0.0 1.0
outer loop
vertex 70.99999999999999 23.0 3.0
vertex 22.999999999999996 52.99999999999999 3.0
vertex 22.999999999999996 23.0 3.0
endloop
endfacet
facet normal -0.0 -0.0 1.0
outer loop
vertex 22.999999999999996 52.99999999999999 3.0
vertex 70.99999999999999 23.0 3.0
vertex 70.99999999999999 52.99999999999999 3.0
endloop
endfacet
facet normal -1.0 0.0 0.0
outer loop
vertex 70.99999999999999 23.0 113.00000000000004
vertex 70.99999999999999 34.5 100.0
vertex 70.99999999999999 23.0 3.0
endloop
endfacet
facet normal -1.0 0.0 0.0
outer loop
vertex 70.99999999999999 34.5 100.0
vertex 70.99999999999999 23.0 113.00000000000004
vertex 70.99999999999999 34.619259607988255 100.90586665785882
endloop
endfacet
facet normal -1.0 0.0 0.0
outer loop
vertex 70.99999999999999 34.619259607988255 100.90586665785882
vertex 70.99999999999999 23.0 113.00000000000004
vertex 70.99999999999999 34.96891108675447 101.74999999999999
endloop
endfacet
facet normal -1.0 0.0 0.0
outer loop
vertex 70.99999999999999 34.96891108675447 101.74999999999999
vertex 70.99999999999999 23.0 113.00000000000004
vertex 70.99999999999999 35.52512626584708 102.4748737341529
endloop
endfacet
facet normal -1.0 0.0 0.0
outer loop
vertex 70.99999999999999 35.52512626584708 102.4748737341529
vertex 70.99999999999999 23.0 113.00000000000004
vertex 70.99999999999999 36.24999999999999 103.03108891324554
endloop
endfacet
facet normal -1.0 0.0 0.0
outer loop
vertex 70.99999999999999 36.24999999999999 103.03108891324554
vertex 70.99999999999999 23.0 113.00000000000004
vertex 70.99999999999999 52.99999999999999 113.00000000000004
endloop
endfacet
facet normal -1.0 0.0 0.0
outer loop
vertex 70.99999999999999 36.24999999999999 103.03108891324554
vertex 70.99999999999999 52.99999999999999 113.00000000000004
vertex 70.99999999999999 37.09413334214117 103.38074039201172
endloop
endfacet
facet normal -1.0 0.0 0.0
outer loop
vertex 70.99999999999999 37.09413334214117 103.38074039201172
vertex 70.99999999999999 52.99999999999999 113.00000000000004
vertex 70.99999999999999 37.99999999999999 103.49999999999999
endloop
endfacet
facet normal -1.0 0.0 0.0
outer loop
vertex 70.99999999999999 37.99999999999999 103.49999999999999
vertex 70.99999999999999 52.99999999999999 113.00000000000004
vertex 70.99999999999999 38.90586665785881 103.38074039201172
endloop
endfacet
facet normal -1.0 0.0 0.0
outer loop
vertex 70.99999999999999 38.90586665785881 103.38074039201172
vertex 70.99999999999999 52.99999999999999 113.00000000000004
vertex 70.99999999999999 39.749999999999986 103.03108891324554
endloop
endfacet
facet normal -1.0 0.0 0.0
outer loop
vertex 70.99999999999999 39.749999999999986 103.03108891324554
vertex 70.99999999999999 52.99999999999999 113.00000000000004
vertex 70.99999999999999 40.4748737341529 102.47487373415292
endloop
endfacet
facet normal -1.0 0.0 0.0
outer loop
vertex 70.99999999999999 40.4748737341529 102.47487373415292
vertex 70.99999999999999 52.99999999999999 113.00000000000004
vertex 70.99999999999999 41.03108891324552 101.75
endloop
endfacet
facet normal -1.0 0.0 0.0
outer loop
vertex 70.99999999999999 41.03108891324552 101.75
vertex 70.99999999999999 52.99999999999999 113.00000000000004
vertex 70.99999999999999 41.380740392011724 100.90586665785882
endloop
endfacet
facet normal -1.0 0.0 0.0
outer loop
vertex 70.99999999999999 41.380740392011724 100.90586665785882
vertex 70.99999999999999 52.99999999999999 113.00000000000004
vertex 70.99999999999999 41.499999999999986 100.0
endloop
endfacet
facet normal -1.0 0.0 0.0
outer loop
vertex 70.99999999999999 41.499999999999986 100.0
vertex 70.99999999999999 52.99999999999999 113.00000000000004
vertex 70.99999999999999 41.499999999999986 10.0
endloop
endfacet
facet normal -1.0 0.0 0.0
outer loop
vertex 70.99999999999999 23.0 3.0
vertex 70.99999999999999 37.094133342141156 6.619259607988262
vertex 70.99999999999999 52.99999999999999 3.0
endloop
endfacet
facet normal -1.0 0.0 0.0
outer loop
vertex 70.99999999999999 37.094133342141156 6.619259607988262
vertex 70.99999999999999 23.0 3.0
vertex 70.99999999999999 36.249999999999986 6.968911086754466
endloop
endfacet
facet normal -1.0 0.0 0.0
outer loop
vertex 70.99999999999999 36.249999999999986 6.968911086754466
vertex 70.99999999999999 23.0 3.0
vertex 70.99999999999999 35.52512626584707 7.525126265847085
endloop
endfacet
facet normal -1.0 0.0 0.0
outer loop
vertex 70.99999999999999 35.52512626584707 7.525126265847085
vertex 70.99999999999999 23.0 3.0
vertex 70.99999999999999 34.96891108675445 8.250000000000002
endloop
endfacet
facet normal -1.0 0.0 0.0
outer loop
vertex 70.99999999999999 34.96891108675445 8.250000000000002
vertex 70.99999999999999 23.0 3.0
vertex 70.99999999999999 34.619259607988255 9.094133342141179
endloop
endfacet
facet normal -1.0 0.0 0.0
outer loop
vertex 70.99999999999999 34.619259607988255 9.094133342141179
vertex 70.99999999999999 23.0 3.0
vertex 70.99999999999999 34.5 10.0
endloop
endfacet
facet normal -1.0 0.0 0.0
outer loop
vertex 70.99999999999999 34.5 10.0
vertex 70.99999999999999 23.0 3.0
vertex 70.99999999999999 34.5 100.0
endloop
endfacet
facet normal -1.0 0.0 0.0
outer loop
vertex 70.99999999999999 52.99999999999999 3.0
vertex 70.99999999999999 37.094133342141156 6.619259607988262
vertex 70.99999999999999 37.99999999999998 6.499999999999999
endloop
endfacet
facet normal -1.0 0.0 0.0
outer loop
vertex 70.99999999999999 52.99999999999999 3.0
vertex 70.99999999999999 37.99999999999998 6.499999999999999
vertex 70.99999999999999 38.9058666578588 6.61925960798826
endloop
endfacet
facet normal -1.0 0.0 0.0
outer loop
vertex 70.99999999999999 52.99999999999999 3.0
vertex 70.99999999999999 38.9058666578588 6.61925960798826
vertex 70.99999999999999 39.749999999999986 6.968911086754464
endloop
endfacet
facet normal -1.0 0.0 0.0
outer loop
vertex 70.99999999999999 52.99999999999999 3.0
vertex 70.99999999999999 39.749999999999986 6.968911086754464
vertex 70.99999999999999 40.4748737341529 7.525126265847083
endloop
endfacet
facet normal -1.0 0.0 0.0
outer loop
vertex 70.99999999999999 52.99999999999999 3.0
vertex 70.99999999999999 40.4748737341529 7.525126265847083
vertex 70.99999999999999 41.03108891324552 8.249999999999998
endloop
endfacet
facet normal -1.0 0.0 0.0
outer loop
vertex 70.99999999999999 52.99999999999999 3.0
vertex 70.99999999999999 41.03108891324552 8.249999999999998
vertex 70.99999999999999 41.38074039201173 9.094133342141177
endloop
endfacet
facet normal -1.0 0.0 0.0
outer loop
vertex 70.99999999999999 52.99999999999999 3.0
vertex 70.99999999999999 41.38074039201173 9.094133342141177
vertex 70.99999999999999 41.499999999999986 10.0
endloop
endfacet
facet normal -1.0 0.0 0.0
outer loop
vertex 70.99999999999999 52.99999999999999 3.0
vertex 70.99999999999999 41.499999999999986 10.0
vertex 70.99999999999999 52.99999999999999 113.00000000000004
endloop
endfacet
facet normal -1.0 0.0 0.0
outer loop
vertex 70.99999999999999 34.61925960798826 99.09413334214118
vertex 70.99999999999999 34.5 10.0
vertex 70.99999999999999 34.5 100.0
endloop
endfacet
facet normal -1.0 0.0 0.0
outer loop
vertex 70.99999999999999 34.5 10.0
vertex 70.99999999999999 34.61925960798826 99.09413334214118
vertex 70.99999999999999 34.619259607988255 10.905866657858825
endloop
endfacet
facet normal -1.0 0.0 0.0
outer loop
vertex 70.99999999999999 34.619259607988255 10.905866657858825
vertex 70.99999999999999 34.61925960798826 99.09413334214118
vertex 70.99999999999999 34.96891108675445 11.750000000000002
endloop
endfacet
facet normal -1.0 0.0 0.0
outer loop
vertex 70.99999999999999 34.96891108675445 11.750000000000002
vertex 70.99999999999999 34.61925960798826 99.09413334214118
vertex 70.99999999999999 34.96891108675447 98.25
endloop
endfacet
facet normal -1.0 0.0 0.0
outer loop
vertex 70.99999999999999 34.96891108675445 11.750000000000002
vertex 70.99999999999999 34.96891108675447 98.25
vertex 70.99999999999999 35.52512626584707 12.474873734152919
endloop
endfacet
facet normal -1.0 0.0 0.0
outer loop
vertex 70.99999999999999 35.52512626584707 12.474873734152919
vertex 70.99999999999999 34.96891108675447 98.25
vertex 70.99999999999999 35.52512626584708 97.52512626584709
endloop
endfacet
facet normal -1.0 0.0 0.0
outer loop
vertex 70.99999999999999 35.52512626584707 12.474873734152919
vertex 70.99999999999999 35.52512626584708 97.52512626584709
vertex 70.99999999999999 36.249999999999986 13.031088913245537
endloop
endfacet
facet normal -1.0 0.0 0.0
outer loop
vertex 70.99999999999999 36.249999999999986 13.031088913245537
vertex 70.99999999999999 35.52512626584708 97.52512626584709
vertex 70.99999999999999 36.24999999999999 96.96891108675447
endloop
endfacet
facet normal -1.0 0.0 0.0
outer loop
vertex 70.99999999999999 36.249999999999986 13.031088913245537
vertex 70.99999999999999 36.24999999999999 96.96891108675447
vertex 70.99999999999999 37.09413334214117 13.38074039201174
endloop
endfacet
facet normal -1.0 0.0 0.0
outer loop
vertex 70.99999999999999 37.09413334214117 13.38074039201174
vertex 70.99999999999999 36.24999999999999 96.96891108675447
vertex 70.99999999999999 37.09413334214118 96.61925960798827
endloop
endfacet
facet normal -1.0 0.0 0.0
outer loop
vertex 70.99999999999999 37.09413334214117 13.38074039201174
vertex 70.99999999999999 37.09413334214118 96.61925960798827
vertex 70.99999999999999 37.99999999999998 13.5
endloop
endfacet
facet normal -1.0 0.0 0.0
outer loop
vertex 70.99999999999999 37.99999999999998 13.5
vertex 70.99999999999999 37.09413334214118 96.61925960798827
vertex 70.99999999999999 37.99999999999999 96.5
endloop
endfacet
facet normal -1.0 0.0 0.0
outer loop
vertex 70.99999999999999 37.99999999999998 13.5
vertex 70.99999999999999 37.99999999999999 96.5
vertex 70.99999999999999 38.905866657858816 13.38074039201174
endloop
endfacet
facet normal -1.0 0.0 0.0
outer loop
vertex 70.99999999999999 38.905866657858816 13.38074039201174
vertex 70.99999999999999 37.99999999999999 96.5
vertex 70.99999999999999 38.905866657858816 96.61925960798827
endloop
endfacet
facet normal -1.0 0.0 0.0
outer loop
vertex 70.99999999999999 38.905866657858816 13.38074039201174
vertex 70.99999999999999 38.905866657858816 96.61925960798827
vertex 70.99999999999999 39.749999999999986 96.96891108675447
endloop
endfacet
facet normal -1.0 0.0 0.0
outer loop
vertex 70.99999999999999 38.905866657858816 13.38074039201174
vertex 70.99999999999999 39.749999999999986 96.96891108675447
vertex 70.99999999999999 39.749999999999986 13.031088913245533
endloop
endfacet
facet normal -1.0 0.0 0.0
outer loop
vertex 70.99999999999999 39.749999999999986 13.031088913245533
vertex 70.99999999999999 39.749999999999986 96.96891108675447
vertex 70.99999999999999 40.4748737341529 97.52512626584709
endloop
endfacet
facet normal -1.0 0.0 0.0
outer loop
vertex 70.99999999999999 39.749999999999986 13.031088913245533
vertex 70.99999999999999 40.4748737341529 97.52512626584709
vertex 70.99999999999999 40.4748737341529 12.474873734152915
endloop
endfacet
facet normal -1.0 0.0 0.0
outer loop
vertex 70.99999999999999 40.4748737341529 12.474873734152915
vertex 70.99999999999999 40.4748737341529 97.52512626584709
vertex 70.99999999999999 41.03108891324552 98.25
endloop
endfacet
facet normal -1.0 0.0 0.0
outer loop
vertex 70.99999999999999 40.4748737341529 12.474873734152915
vertex 70.99999999999999 41.03108891324552 98.25
vertex 70.99999999999999 41.03108891324552 11.75
endloop
endfacet
facet normal -1.0 0.0 0.0
outer loop
vertex 70.99999999999999 41.03108891324552 11.75
vertex 70.99999999999999 41.03108891324552 98.25
vertex 70.99999999999999 41.38074039201173 99.09413334214118
endloop
endfacet
facet normal -1.0 0.0 0.0
outer loop
vertex 70.99999999999999 41.03108891324552 11.75
vertex 70.99999999999999 41.38074039201173 99.09413334214118
vertex 70.99999999999999 41.38074039201173 10.905866657858823
endloop
endfacet
facet normal -1.0 0.0 0.0
outer loop
vertex 70.99999999999999 41.38074039201173 10.905866657858823
vertex 70.99999999999999 41.38074039201173 99.09413334214118
vertex 70.99999999999999 41.499999999999986 100.0
endloop
endfacet
facet normal -1.0 0.0 0.0
outer loop
vertex 70.99999999999999 41.38074039201173 10.905866657858823
vertex 70.99999999999999 41.499999999999986 100.0
vertex 70.99999999999999 41.499999999999986 10.0
endloop
endfacet
facet normal 0.0 -1.0 0.0
outer loop
vertex 70.99999999999999 52.99999999999999 113.00000000000004
vertex 22.999999999999996 52.99999999999999 3.0
vertex 70.99999999999999 52.99999999999999 3.0
endloop
endfacet
facet normal 0.0 -1.0 0.0
outer loop
vertex 22.999999999999996 52.99999999999999 3.0
vertex 70.99999999999999 52.99999999999999 113.00000000000004
vertex 22.999999999999996 52.99999999999999 113.00000000000004
endloop
endfacet
facet normal -0.0 1.0 -0.0
outer loop
vertex 22.999999999999996 23.0 113.00000000000004
vertex 70.99999999999999 23.0 3.0
vertex 22.999999999999996 23.0 3.0
endloop
endfacet
facet normal -0.0 1.0 -0.0
outer loop
vertex 70.99999999999999 23.0 3.0
vertex 22.999999999999996 23.0 113.00000000000004
vertex 70.99999999999999 23.0 113.00000000000004
endloop
endfacet
facet normal 1.0 -0.0 -0.0
outer loop
vertex 22.999999999999996 52.99999999999999 3.0
vertex 22.999999999999996 23.0 113.00000000000004
vertex 22.999999999999996 23.0 3.0
endloop
endfacet
facet normal 1.0 -0.0 -0.0
outer loop
vertex 22.999999999999996 23.0 113.00000000000004
vertex 22.999999999999996 52.99999999999999 3.0
vertex 22.999999999999996 52.99999999999999 113.00000000000004
endloop
endfacet
facet normal 0.0 0.8660254037844412 0.49999999999999556
outer loop
vertex 70.99999999999999 34.96891108675445 8.250000000000002
vertex 73.99999999999997 35.52512626584707 7.525126265847085
vertex 70.99999999999999 35.52512626584707 7.525126265847085
endloop
endfacet
facet normal 0.0 0.7071067811865486 0.7071067811865465
outer loop
vertex 73.99999999999997 35.52512626584707 7.525126265847085
vertex 70.99999999999999 34.96891108675445 8.250000000000002
vertex 73.99999999999997 34.96891108675445 8.250000000000002
endloop
endfacet
facet normal 0.0 0.9659258262890696 0.2588190451025155
outer loop
vertex 70.99999999999999 34.619259607988255 9.094133342141179
vertex 73.99999999999997 34.96891108675445 8.250000000000002
vertex 70.99999999999999 34.96891108675445 8.250000000000002
endloop
endfacet
facet normal 0.0 0.8660254037844412 0.49999999999999556
outer loop
vertex 73.99999999999997 34.96891108675445 8.250000000000002
vertex 70.99999999999999 34.619259607988255 9.094133342141179
vertex 73.99999999999997 34.619259607988255 9.094133342141179
endloop
endfacet
facet normal 0.0 1.0 2.9406662655634775e-16
outer loop
vertex 70.99999999999999 34.5 10.0
vertex 73.99999999999997 34.619259607988255 9.094133342141179
vertex 70.99999999999999 34.619259607988255 9.094133342141179
endloop
endfacet
facet normal 0.0 0.9659258262890696 0.2588190451025155
outer loop
vertex 73.99999999999997 34.619259607988255 9.094133342141179
vertex 70.99999999999999 34.5 10.0
vertex 73.99999999999997 34.5 10.0
endloop
endfacet
facet normal 0.0 0.9659258262890696 -0.2588190451025155
outer loop
vertex 70.99999999999999 34.619259607988255 10.905866657858825
vertex 73.99999999999997 34.5 10.0
vertex 70.99999999999999 34.5 10.0
endloop
endfacet
facet normal 0.0 1.0 2.9406662655634775e-16
outer loop
vertex 73.99999999999997 34.5 10.0
vertex 70.99999999999999 34.619259607988255 10.905866657858825
vertex 73.99999999999997 34.619259607988255 10.905866657858825
endloop
endfacet
facet normal 0.0 0.866025403784441 -0.49999999999999584
outer loop
vertex 70.99999999999999 34.96891108675445 11.750000000000002
vertex 73.99999999999997 34.619259607988255 10.905866657858825
vertex 70.99999999999999 34.619259607988255 10.905866657858825
endloop
endfacet
facet normal 0.0 0.9659258262890696 -0.2588190451025155
outer loop
vertex 73.99999999999997 34.619259607988255 10.905866657858825
vertex 70.99999999999999 34.96891108675445 11.750000000000002
vertex 73.99999999999997 34.96891108675445 11.750000000000002
endloop
endfacet
facet normal 0.0 0.7071067811865481 -0.7071067811865468
outer loop
vertex 70.99999999999999 35.52512626584707 12.474873734152919
vertex 73.99999999999997 34.96891108675445 11.750000000000002
vertex 70.99999999999999 34.96891108675445 11.750000000000002
endloop
endfacet
facet normal 0.0 0.866025403784441 -0.49999999999999584
outer loop
vertex 73.99999999999997 34.96891108675445 11.750000000000002
vertex 70.99999999999999 35.52512626584707 12.474873734152919
vertex 73.99999999999997 35.52512626584707 12.474873734152919
endloop
endfacet
facet normal 0.0 0.4999999999999988 -0.8660254037844393
outer loop
vertex 73.99999999999997 36.249999999999986 13.031088913245537
vertex 70.99999999999999 35.52512626584707 12.474873734152919
vertex 70.99999999999999 36.249999999999986 13.031088913245537
endloop
endfacet
facet normal 0.0 0.7071067811865481 -0.7071067811865468
outer loop
vertex 70.99999999999999 35.52512626584707 12.474873734152919
vertex 73.99999999999997 36.249999999999986 13.031088913245537
vertex 73.99999999999997 35.52512626584707 12.474873734152919
endloop
endfacet
facet normal 0.0 0.25881904510252024 -0.9659258262890685
outer loop
vertex 73.99999999999997 37.09413334214117 13.38074039201174
vertex 70.99999999999999 36.249999999999986 13.031088913245537
vertex 70.99999999999999 37.09413334214117 13.38074039201174
endloop
endfacet
facet normal 0.0 0.4999999999999988 -0.8660254037844393
outer loop
vertex 70.99999999999999 36.249999999999986 13.031088913245537
vertex 73.99999999999997 37.09413334214117 13.38074039201174
vertex 73.99999999999997 36.249999999999986 13.031088913245537
endloop
endfacet
facet normal 0.0 1.6129108911120896e-15 -1.0
outer loop
vertex 73.99999999999997 37.99999999999998 13.5
vertex 70.99999999999999 37.09413334214117 13.38074039201174
vertex 70.99999999999999 37.99999999999998 13.5
endloop
endfacet
facet normal 0.0 0.25881904510252024 -0.9659258262890685
outer loop
vertex 70.99999999999999 37.09413334214117 13.38074039201174
vertex 73.99999999999997 37.99999999999998 13.5
vertex 73.99999999999997 37.09413334214117 13.38074039201174
endloop
endfacet
facet normal 0.0 -0.25881904510252235 -0.965925826289068
outer loop
vertex 73.99999999999997 38.905866657858816 13.38074039201174
vertex 70.99999999999999 37.99999999999998 13.5
vertex 70.99999999999999 38.905866657858816 13.38074039201174
endloop
endfacet
facet normal 0.0 1.6129108911120896e-15 -1.0
outer loop
vertex 70.99999999999999 37.99999999999998 13.5
vertex 73.99999999999997 38.905866657858816 13.38074039201174
vertex 73.99999999999997 37.99999999999998 13.5
endloop
endfacet
facet normal 0.0 -0.5000000000000021 -0.8660254037844375
outer loop
vertex 73.99999999999997 39.749999999999986 13.031088913245533
vertex 70.99999999999999 38.905866657858816 13.38074039201174
vertex 70.99999999999999 39.749999999999986 13.031088913245533
endloop
endfacet
facet normal 0.0 -0.25881904510252235 -0.965925826289068
outer loop
vertex 70.99999999999999 38.905866657858816 13.38074039201174
vertex 73.99999999999997 39.749999999999986 13.031088913245533
vertex 73.99999999999997 38.905866657858816 13.38074039201174
endloop
endfacet
facet normal 0.0 -0.7071067811865478 -0.7071067811865471
outer loop
vertex 73.99999999999997 40.4748737341529 12.474873734152915
vertex 70.99999999999999 39.749999999999986 13.031088913245533
vertex 70.99999999999999 40.4748737341529 12.474873734152915
endloop
endfacet
facet normal 0.0 -0.5000000000000021 -0.8660254037844375
outer loop
vertex 70.99999999999999 39.749999999999986 13.031088913245533
vertex 73.99999999999997 40.4748737341529 12.474873734152915
vertex 73.99999999999997 39.749999999999986 13.031088913245533
endloop
endfacet
facet normal 0.0 -0.7071067811865478 -0.7071067811865471
outer loop
vertex 73.99999999999997 40.4748737341529 12.474873734152915
vertex 70.99999999999999 41.03108891324552 11.75
vertex 73.99999999999997 41.03108891324552 11.75
endloop
endfacet
facet normal 0.0 -0.866025403784438 -0.5000000000000009
outer loop
vertex 70.99999999999999 41.03108891324552 11.75
vertex 73.99999999999997 40.4748737341529 12.474873734152915
vertex 70.99999999999999 40.4748737341529 12.474873734152915
endloop
endfacet
facet normal 0.0 -0.866025403784438 -0.5000000000000009
outer loop
vertex 73.99999999999997 41.03108891324552 11.75
vertex 70.99999999999999 41.38074039201173 10.905866657858823
vertex 73.99999999999997 41.38074039201173 10.905866657858823
endloop
endfacet
facet normal 0.0 -0.9659258262890682 -0.25881904510252085
outer loop
vertex 70.99999999999999 41.38074039201173 10.905866657858823
vertex 73.99999999999997 41.03108891324552 11.75
vertex 70.99999999999999 41.03108891324552 11.75
endloop
endfacet
facet normal 0.0 -0.9659258262890682 -0.25881904510252085
outer loop
vertex 73.99999999999997 41.38074039201173 10.905866657858823
vertex 70.99999999999999 41.499999999999986 10.0
vertex 73.99999999999997 41.499999999999986 10.0
endloop
endfacet
facet normal 0.0 -1.0 0.0
outer loop
vertex 70.99999999999999 41.499999999999986 10.0
vertex 73.99999999999997 41.38074039201173 10.905866657858823
vertex 70.99999999999999 41.38074039201173 10.905866657858823
endloop
endfacet
facet normal 0.0 -1.0 0.0
outer loop
vertex 73.99999999999997 41.499999999999986 10.0
vertex 70.99999999999999 41.38074039201173 9.094133342141177
vertex 73.99999999999997 41.38074039201173 9.094133342141177
endloop
endfacet
facet normal 0.0 -0.9659258262890683 0.2588190451025205
outer loop
vertex 70.99999999999999 41.38074039201173 9.094133342141177
vertex 73.99999999999997 41.499999999999986 10.0
vertex 70.99999999999999 41.499999999999986 10.0
endloop
endfacet
facet normal 0.0 -0.9659258262890683 0.2588190451025205
outer loop
vertex 73.99999999999997 41.38074039201173 9.094133342141177
vertex 70.99999999999999 41.03108891324552 8.249999999999998
vertex 73.99999999999997 41.03108891324552 8.249999999999998
endloop
endfacet
facet normal 0.0 -0.8660254037844384 0.5000000000000006
outer loop
vertex 70.99999999999999 41.03108891324552 8.249999999999998
vertex 73.99999999999997 41.38074039201173 9.094133342141177
vertex 70.99999999999999 41.38074039201173 9.094133342141177
endloop
endfacet
facet normal 0.0 -0.8660254037844384 0.5000000000000006
outer loop
vertex 73.99999999999997 41.03108891324552 8.249999999999998
vertex 70.99999999999999 40.4748737341529 7.525126265847083
vertex 73.99999999999997 40.4748737341529 7.525126265847083
endloop
endfacet
facet normal 0.0 -0.7071067811865482 0.7071067811865468
outer loop
vertex 70.99999999999999 40.4748737341529 7.525126265847083
vertex 73.99999999999997 41.03108891324552 8.249999999999998
vertex 70.99999999999999 41.03108891324552 8.249999999999998
endloop
endfacet
facet normal 0.0 -0.4999999999999994 0.8660254037844392
outer loop
vertex 73.99999999999997 39.749999999999986 6.968911086754464
vertex 70.99999999999999 40.4748737341529 7.525126265847083
vertex 70.99999999999999 39.749999999999986 6.968911086754464
endloop
endfacet
facet normal 0.0 -0.7071067811865482 0.7071067811865468
outer loop
vertex 70.99999999999999 40.4748737341529 7.525126265847083
vertex 73.99999999999997 39.749999999999986 6.968911086754464
vertex 73.99999999999997 40.4748737341529 7.525126265847083
endloop
endfacet
facet normal 0.0 -0.2588190451025194 0.9659258262890685
outer loop
vertex 73.99999999999997 38.9058666578588 6.61925960798826
vertex 70.99999999999999 39.749999999999986 6.968911086754464
vertex 70.99999999999999 38.9058666578588 6.61925960798826
endloop
endfacet
facet normal 0.0 -0.4999999999999994 0.8660254037844392
outer loop
vertex 70.99999999999999 39.749999999999986 6.968911086754464
vertex 73.99999999999997 38.9058666578588 6.61925960798826
vertex 73.99999999999997 39.749999999999986 6.968911086754464
endloop
endfacet
facet normal -1.0 0.0 0.0
outer loop
vertex 19.999999999999996 54.79999999999999 113.00000000000004
vertex 19.999999999999996 21.199999999999996 0.0
vertex 19.999999999999996 21.199999999999996 113.00000000000004
endloop
endfacet
facet normal -1.0 0.0 0.0
outer loop
vertex 19.999999999999996 21.199999999999996 0.0
vertex 19.999999999999996 54.79999999999999 113.00000000000004
vertex 19.999999999999996 54.79999999999999 0.0
endloop
endfacet
facet normal 0.0 -1.0 0.0
outer loop
vertex 72.79999999999998 19.999999999999996 113.00000000000004
vertex 21.2 19.999999999999996 0.0
vertex 72.79999999999998 19.999999999999996 0.0
endloop
endfacet
facet normal 0.0 -1.0 0.0
outer loop
vertex 21.2 19.999999999999996 0.0
vertex 72.79999999999998 19.999999999999996 113.00000000000004
vertex 21.2 19.999999999999996 113.00000000000004
endloop
endfacet
facet normal 0.7071067811865483 -0.7071067811865467 -0.0
outer loop
vertex 73.99999999999997 21.2 0.0
vertex 72.79999999999998 19.999999999999996 113.00000000000004
vertex 72.79999999999998 19.999999999999996 0.0
endloop
endfacet
facet normal 0.7071067811865483 -0.7071067811865467 -0.0
outer loop
vertex 72.79999999999998 19.999999999999996 113.00000000000004
vertex 73.99999999999997 21.2 0.0
vertex 73.99999999999997 21.2 113.00000000000004
endloop
endfacet
facet normal -0.7071067811865475 0.7071067811865475 -0.0
outer loop
vertex 21.199999999999996 55.999999999999986 113.00000000000004
vertex 19.999999999999996 54.79999999999999 0.0
vertex 19.999999999999996 54.79999999999999 113.00000000000004
endloop
endfacet
facet normal -0.7071067811865475 0.7071067811865475 -0.0
outer loop
vertex 19.999999999999996 54.79999999999999 0.0
vertex 21.199999999999996 55.999999999999986 113.00000000000004
vertex 21.199999999999996 55.999999999999986 0.0
endloop
endfacet
facet normal 0.7071067811865475 0.7071067811865475 -0.0
outer loop
vertex 72.79999999999998 55.999999999999986 0.0
vertex 73.99999999999997 54.79999999999999 113.00000000000004
vertex 73.99999999999997 54.79999999999999 0.0
endloop
endfacet
facet normal 0.7071067811865475 0.7071067811865475 -0.0
outer loop
vertex 73.99999999999997 54.79999999999999 113.00000000000004
vertex 72.79999999999998 55.999999999999986 0.0
vertex 72.79999999999998 55.999999999999986 113.00000000000004
endloop
endfacet
facet normal 0.0 7.663554510256339e-16 1.0
outer loop
vertex 73.99999999999997 37.99999999999998 6.499999999999999
vertex 70.99999999999999 38.9058666578588 6.61925960798826
vertex 70.99999999999999 37.99999999999998 6.499999999999999
endloop
endfacet
facet normal 0.0 -0.2588190451025194 0.9659258262890685
outer loop
vertex 70.99999999999999 38.9058666578588 6.61925960798826
vertex 73.99999999999997 37.99999999999998 6.499999999999999
vertex 73.99999999999997 38.9058666578588 6.61925960798826
endloop
endfacet
facet normal 0.0 0.2588190451025224 0.9659258262890678
outer loop
vertex 73.99999999999997 37.094133342141156 6.619259607988262
vertex 70.99999999999999 37.99999999999998 6.499999999999999
vertex 70.99999999999999 37.094133342141156 6.619259607988262
endloop
endfacet
facet normal 0.0 7.663554510256339e-16 1.0
outer loop
vertex 70.99999999999999 37.99999999999998 6.499999999999999
vertex 73.99999999999997 37.094133342141156 6.619259607988262
vertex 73.99999999999997 37.99999999999998 6.499999999999999
endloop
endfacet
facet normal 0.0 0.5000000000000013 0.8660254037844377
outer loop
vertex 73.99999999999997 36.249999999999986 6.968911086754466
vertex 70.99999999999999 37.094133342141156 6.619259607988262
vertex 70.99999999999999 36.249999999999986 6.968911086754466
endloop
endfacet
facet normal 0.0 0.2588190451025224 0.9659258262890678
outer loop
vertex 70.99999999999999 37.094133342141156 6.619259607988262
vertex 73.99999999999997 36.249999999999986 6.968911086754466
vertex 73.99999999999997 37.094133342141156 6.619259607988262
endloop
endfacet
facet normal 0.0 0.7071067811865486 0.7071067811865465
outer loop
vertex 73.99999999999997 35.52512626584707 7.525126265847085
vertex 70.99999999999999 36.249999999999986 6.968911086754466
vertex 70.99999999999999 35.52512626584707 7.525126265847085
endloop
endfacet
facet normal 0.0 0.5000000000000013 0.8660254037844377
outer loop
vertex 70.99999999999999 36.249999999999986 6.968911086754466
vertex 73.99999999999997 35.52512626584707 7.525126265847085
vertex 73.99999999999997 36.249999999999986 6.968911086754466
endloop
endfacet
facet normal 0.0 1.0 3.0832440238938293e-15
outer loop
vertex 70.99999999999999 34.5 100.0
vertex 73.99999999999997 34.61925960798826 99.09413334214118
vertex 70.99999999999999 34.61925960798826 99.09413334214118
endloop
endfacet
facet normal 0.0 0.965925826289068 0.25881904510252174
outer loop
vertex 73.99999999999997 34.61925960798826 99.09413334214118
vertex 70.99999999999999 34.5 100.0
vertex 73.99999999999997 34.5 100.0
endloop
endfacet
facet normal 0.0 0.965925826289068 0.25881904510252174
outer loop
vertex 70.99999999999999 34.61925960798826 99.09413334214118
vertex 73.99999999999997 34.96891108675447 98.25
vertex 70.99999999999999 34.96891108675447 98.25
endloop
endfacet
facet normal 0.0 0.8660254037844389 0.49999999999999956
outer loop
vertex 73.99999999999997 34.96891108675447 98.25
vertex 70.99999999999999 34.61925960798826 99.09413334214118
vertex 73.99999999999997 34.61925960798826 99.09413334214118
endloop
endfacet
facet normal 0.0 0.8660254037844389 0.49999999999999956
outer loop
vertex 70.99999999999999 34.96891108675447 98.25
vertex 73.99999999999997 35.52512626584708 97.52512626584709
vertex 70.99999999999999 35.52512626584708 97.52512626584709
endloop
endfacet
facet normal 0.0 0.7071067811865475 0.7071067811865475
outer loop
vertex 73.99999999999997 35.52512626584708 97.52512626584709
vertex 70.99999999999999 34.96891108675447 98.25
vertex 73.99999999999997 34.96891108675447 98.25
endloop
endfacet
facet normal 0.0 0.7071067811865475 0.7071067811865475
outer loop
vertex 73.99999999999997 35.52512626584708 97.52512626584709
vertex 70.99999999999999 36.24999999999999 96.96891108675447
vertex 70.99999999999999 35.52512626584708 97.52512626584709
endloop
endfacet
facet normal 0.0 0.5000000000000011 0.866025403784438
outer loop
vertex 70.99999999999999 36.24999999999999 96.96891108675447
vertex 73.99999999999997 35.52512626584708 97.52512626584709
vertex 73.99999999999997 36.24999999999999 96.96891108675447
endloop
endfacet
facet normal 0.0 0.5000000000000011 0.866025403784438
outer loop
vertex 73.99999999999997 36.24999999999999 96.96891108675447
vertex 70.99999999999999 37.09413334214118 96.61925960798827
vertex 70.99999999999999 36.24999999999999 96.96891108675447
endloop
endfacet
facet normal 0.0 0.25881904510252085 0.9659258262890683
outer loop
vertex 70.99999999999999 37.09413334214118 96.61925960798827
vertex 73.99999999999997 36.24999999999999 96.96891108675447
vertex 73.99999999999997 37.09413334214118 96.61925960798827
endloop
endfacet
facet normal 0.0 0.25881904510252085 0.9659258262890683
outer loop
vertex 73.99999999999997 37.09413334214118 96.61925960798827
vertex 70.99999999999999 37.99999999999999 96.5
vertex 70.99999999999999 37.09413334214118 96.61925960798827
endloop
endfacet
facet normal 0.0 4.0991105519975757e-16 1.0
outer loop
vertex 70.99999999999999 37.99999999999999 96.5
vertex 73.99999999999997 37.09413334214118 96.61925960798827
vertex 73.99999999999997 37.99999999999999 96.5
endloop
endfacet
facet normal 0.0 -0.86602540378444 -0.4999999999999975
outer loop
vertex 73.99999999999997 41.03108891324552 101.75
vertex 70.99999999999999 41.380740392011724 100.90586665785882
vertex 73.99999999999997 41.380740392011724 100.90586665785882
endloop
endfacet
facet normal 0.0 -0.9659258262890685 -0.2588190451025195
outer loop
vertex 70.99999999999999 41.380740392011724 100.90586665785882
vertex 73.99999999999997 41.03108891324552 101.75
vertex 70.99999999999999 41.03108891324552 101.75
endloop
endfacet
facet normal 0.0 -0.7071067811865475 -0.7071067811865475
outer loop
vertex 73.99999999999997 40.4748737341529 102.47487373415292
vertex 70.99999999999999 41.03108891324552 101.75
vertex 73.99999999999997 41.03108891324552 101.75
endloop
endfacet
facet normal 0.0 -0.86602540378444 -0.4999999999999975
outer loop
vertex 70.99999999999999 41.03108891324552 101.75
vertex 73.99999999999997 40.4748737341529 102.47487373415292
vertex 70.99999999999999 40.4748737341529 102.47487373415292
endloop
endfacet
facet normal 0.0 -0.7071067811865475 -0.7071067811865475
outer loop
vertex 73.99999999999997 40.4748737341529 102.47487373415292
vertex 70.99999999999999 39.749999999999986 103.03108891324554
vertex 70.99999999999999 40.4748737341529 102.47487373415292
endloop
endfacet
facet normal 0.0 -0.49999999999999123 -0.8660254037844438
outer loop
vertex 70.99999999999999 39.749999999999986 103.03108891324554
vertex 73.99999999999997 40.4748737341529 102.47487373415292
vertex 73.99999999999997 39.749999999999986 103.03108891324554
endloop
endfacet
facet normal 0.0 -0.49999999999999123 -0.8660254037844438
outer loop
vertex 73.99999999999997 39.749999999999986 103.03108891324554
vertex 70.99999999999999 38.90586665785881 103.38074039201172
vertex 70.99999999999999 39.749999999999986 103.03108891324554
endloop
endfacet
facet normal 0.0 -0.2588190451025157 -0.9659258262890695
outer loop
vertex 70.99999999999999 38.90586665785881 103.38074039201172
vertex 73.99999999999997 39.749999999999986 103.03108891324554
vertex 73.99999999999997 38.90586665785881 103.38074039201172
endloop
endfacet
facet normal 0.0 -0.2588190451025157 -0.9659258262890695
outer loop
vertex 73.99999999999997 38.90586665785881 103.38074039201172
vertex 70.99999999999999 37.99999999999999 103.49999999999999
vertex 70.99999999999999 38.90586665785881 103.38074039201172
endloop
endfacet
facet normal 0.0 -4.0099994530411117e-16 -1.0
outer loop
vertex 70.99999999999999 37.99999999999999 103.49999999999999
vertex 73.99999999999997 38.90586665785881 103.38074039201172
vertex 73.99999999999997 37.99999999999999 103.49999999999999
endloop
endfacet
facet normal 0.0 -4.0099994530411117e-16 -1.0
outer loop
vertex 73.99999999999997 37.99999999999999 103.49999999999999
vertex 70.99999999999999 37.09413334214117 103.38074039201172
vertex 70.99999999999999 37.99999999999999 103.49999999999999
endloop
endfacet
facet normal 0.0 0.25881904510251647 -0.9659258262890693
outer loop
vertex 70.99999999999999 37.09413334214117 103.38074039201172
vertex 73.99999999999997 37.99999999999999 103.49999999999999
vertex 73.99999999999997 37.09413334214117 103.38074039201172
endloop
endfacet
facet normal 0.0 -0.2588190451025216 0.965925826289068
outer loop
vertex 73.99999999999997 38.905866657858816 96.61925960798827
vertex 70.99999999999999 39.749999999999986 96.96891108675447
vertex 70.99999999999999 38.905866657858816 96.61925960798827
endloop
endfacet
facet normal 0.0 -0.5000000000000022 0.8660254037844375
outer loop
vertex 70.99999999999999 39.749999999999986 96.96891108675447
vertex 73.99999999999997 38.905866657858816 96.61925960798827
vertex 73.99999999999997 39.749999999999986 96.96891108675447
endloop
endfacet
facet normal -0.7071067811865467 -0.7071067811865483 0.0
outer loop
vertex 21.2 19.999999999999996 113.00000000000004
vertex 19.999999999999996 21.199999999999996 0.0
vertex 21.2 19.999999999999996 0.0
endloop
endfacet
facet normal -0.7071067811865467 -0.7071067811865483 0.0
outer loop
vertex 19.999999999999996 21.199999999999996 0.0
vertex 21.2 19.999999999999996 113.00000000000004
vertex 19.999999999999996 21.199999999999996 113.00000000000004
endloop
endfacet
facet normal -0.0 1.0 -0.0
outer loop
vertex 21.199999999999996 55.999999999999986 113.00000000000004
vertex 72.79999999999998 55.999999999999986 0.0
vertex 21.199999999999996 55.999999999999986 0.0
endloop
endfacet
facet normal -0.0 1.0 -0.0
outer loop
vertex 72.79999999999998 55.999999999999986 0.0
vertex 21.199999999999996 55.999999999999986 113.00000000000004
vertex 72.79999999999998 55.999999999999986 113.00000000000004
endloop
endfacet
facet normal 0.0 0.0 -1.0
outer loop
vertex 21.199999999999996 55.999999999999986 0.0
vertex 19.999999999999996 21.199999999999996 0.0
vertex 19.999999999999996 54.79999999999999 0.0
endloop
endfacet
facet normal 0.0 0.0 -1.0
outer loop
vertex 19.999999999999996 21.199999999999996 0.0
vertex 21.199999999999996 55.999999999999986 0.0
vertex 21.2 19.999999999999996 0.0
endloop
endfacet
facet normal 0.0 0.0 -1.0
outer loop
vertex 21.2 19.999999999999996 0.0
vertex 21.199999999999996 55.999999999999986 0.0
vertex 72.79999999999998 55.999999999999986 0.0
endloop
endfacet
facet normal 0.0 0.0 -1.0
outer loop
vertex 21.2 19.999999999999996 0.0
vertex 72.79999999999998 55.999999999999986 0.0
vertex 72.79999999999998 19.999999999999996 0.0
endloop
endfacet
facet normal 0.0 0.0 -1.0
outer loop
vertex 72.79999999999998 19.999999999999996 0.0
vertex 72.79999999999998 55.999999999999986 0.0
vertex 73.99999999999997 54.79999999999999 0.0
endloop
endfacet
facet normal 0.0 0.0 -1.0
outer loop
vertex 72.79999999999998 19.999999999999996 0.0
vertex 73.99999999999997 54.79999999999999 0.0
vertex 73.99999999999997 21.2 0.0
endloop
endfacet
facet normal -0.0 -0.0 1.0
outer loop
vertex 72.79999999999998 19.999999999999996 113.00000000000004
vertex 22.999999999999996 23.0 113.00000000000004
vertex 21.2 19.999999999999996 113.00000000000004
endloop
endfacet
facet normal -0.0 -0.0 1.0
outer loop
vertex 22.999999999999996 23.0 113.00000000000004
vertex 72.79999999999998 19.999999999999996 113.00000000000004
vertex 70.99999999999999 23.0 113.00000000000004
endloop
endfacet
facet normal -0.0 -0.0 1.0
outer loop
vertex 70.99999999999999 23.0 113.00000000000004
vertex 72.79999999999998 19.999999999999996 113.00000000000004
vertex 70.99999999999999 52.99999999999999 113.00000000000004
endloop
endfacet
facet normal -0.0 -0.0 1.0
outer loop
vertex 21.2 19.999999999999996 113.00000000000004
vertex 19.999999999999996 54.79999999999999 113.00000000000004
vertex 19.999999999999996 21.199999999999996 113.00000000000004
endloop
endfacet
facet normal -0.0 -0.0 1.0
outer loop
vertex 19.999999999999996 54.79999999999999 113.00000000000004
vertex 21.2 19.999999999999996 113.00000000000004
vertex 21.199999999999996 55.999999999999986 113.00000000000004
endloop
endfacet
facet normal -0.0 -0.0 1.0
outer loop
vertex 21.199999999999996 55.999999999999986 113.00000000000004
vertex 21.2 19.999999999999996 113.00000000000004
vertex 22.999999999999996 52.99999999999999 113.00000000000004
endloop
endfacet
facet normal -0.0 -0.0 1.0
outer loop
vertex 21.199999999999996 55.999999999999986 113.00000000000004
vertex 22.999999999999996 52.99999999999999 113.00000000000004
vertex 72.79999999999998 55.999999999999986 113.00000000000004
endloop
endfacet
facet normal -0.0 -0.0 1.0
outer loop
vertex 22.999999999999996 52.99999999999999 113.00000000000004
vertex 21.2 19.999999999999996 113.00000000000004
vertex 22.999999999999996 23.0 113.00000000000004
endloop
endfacet
facet normal -0.0 -0.0 1.0
outer loop
vertex 72.79999999999998 55.999999999999986 113.00000000000004
vertex 22.999999999999996 52.99999999999999 113.00000000000004
vertex 70.99999999999999 52.99999999999999 113.00000000000004
endloop
endfacet
facet normal -0.0 -0.0 1.0
outer loop
vertex 72.79999999999998 55.999999999999986 113.00000000000004
vertex 70.99999999999999 52.99999999999999 113.00000000000004
vertex 72.79999999999998 19.999999999999996 113.00000000000004
endloop
endfacet
facet normal -0.0 -0.0 1.0
outer loop
vertex 72.79999999999998 55.999999999999986 113.00000000000004
vertex 72.79999999999998 19.999999999999996 113.00000000000004
vertex 73.99999999999997 21.2 113.00000000000004
endloop
endfacet
facet normal -0.0 -0.0 1.0
outer loop
vertex 72.79999999999998 55.999999999999986 113.00000000000004
vertex 73.99999999999997 21.2 113.00000000000004
vertex 73.99999999999997 54.79999999999999 113.00000000000004
endloop
endfacet
facet normal 0.0 -0.5000000000000022 0.8660254037844375
outer loop
vertex 73.99999999999997 39.749999999999986 96.96891108675447
vertex 70.99999999999999 40.4748737341529 97.52512626584709
vertex 70.99999999999999 39.749999999999986 96.96891108675447
endloop
endfacet
facet normal 0.0 -0.7071067811865475 0.7071067811865475
outer loop
vertex 70.99999999999999 40.4748737341529 97.52512626584709
vertex 73.99999999999997 39.749999999999986 96.96891108675447
vertex 73.99999999999997 40.4748737341529 97.52512626584709
endloop
endfacet
facet normal 0.0 -0.8660254037844375 0.5000000000000022
outer loop
vertex 73.99999999999997 41.03108891324552 98.25
vertex 70.99999999999999 40.4748737341529 97.52512626584709
vertex 73.99999999999997 40.4748737341529 97.52512626584709
endloop
endfacet
facet normal 0.0 -0.7071067811865475 0.7071067811865475
outer loop
vertex 70.99999999999999 40.4748737341529 97.52512626584709
vertex 73.99999999999997 41.03108891324552 98.25
vertex 70.99999999999999 41.03108891324552 98.25
endloop
endfacet
facet normal 0.0 -0.965925826289068 0.2588190451025216
outer loop
vertex 73.99999999999997 41.38074039201173 99.09413334214118
vertex 70.99999999999999 41.03108891324552 98.25
vertex 73.99999999999997 41.03108891324552 98.25
endloop
endfacet
facet normal 0.0 -0.8660254037844375 0.5000000000000022
outer loop
vertex 70.99999999999999 41.03108891324552 98.25
vertex 73.99999999999997 41.38074039201173 99.09413334214118
vertex 70.99999999999999 41.38074039201173 99.09413334214118
endloop
endfacet
facet normal 0.0 -1.0 -3.0832440238938293e-15
outer loop
vertex 73.99999999999997 41.499999999999986 100.0
vertex 70.99999999999999 41.38074039201173 99.09413334214118
vertex 73.99999999999997 41.38074039201173 99.09413334214118
endloop
endfacet
facet normal 0.0 -0.965925826289068 0.2588190451025216
outer loop
vertex 70.99999999999999 41.38074039201173 99.09413334214118
vertex 73.99999999999997 41.499999999999986 100.0
vertex 70.99999999999999 41.499999999999986 100.0
endloop
endfacet
facet normal 0.0 -0.9659258262890685 -0.2588190451025195
outer loop
vertex 73.99999999999997 41.380740392011724 100.90586665785882
vertex 70.99999999999999 41.499999999999986 100.0
vertex 73.99999999999997 41.499999999999986 100.0
endloop
endfacet
facet normal 0.0 -1.0 -3.0832440238938293e-15
outer loop
vertex 70.99999999999999 41.499999999999986 100.0
vertex 73.99999999999997 41.380740392011724 100.90586665785882
vertex 70.99999999999999 41.380740392011724 100.90586665785882
endloop
endfacet
facet normal 1.0 -0.0 -0.0
outer loop
vertex 73.99999999999997 21.2 0.0
vertex 73.99999999999997 34.5 10.0
vertex 73.99999999999997 21.2 113.00000000000004
endloop
endfacet
facet normal 1.0 -0.0 -0.0
outer loop
vertex 73.99999999999997 34.5 10.0
vertex 73.99999999999997 21.2 0.0
vertex 73.99999999999997 34.619259607988255 9.094133342141179
endloop
endfacet
facet normal 1.0 -0.0 -0.0
outer loop
vertex 73.99999999999997 34.619259607988255 9.094133342141179
vertex 73.99999999999997 21.2 0.0
vertex 73.99999999999997 34.96891108675445 8.250000000000002
endloop
endfacet
facet normal 1.0 -0.0 -0.0
outer loop
vertex 73.99999999999997 34.96891108675445 8.250000000000002
vertex 73.99999999999997 21.2 0.0
vertex 73.99999999999997 35.52512626584707 7.525126265847085
endloop
endfacet
facet normal 1.0 -0.0 -0.0
outer loop
vertex 73.99999999999997 35.52512626584707 7.525126265847085
vertex 73.99999999999997 21.2 0.0
vertex 73.99999999999997 36.249999999999986 6.968911086754466
endloop
endfacet
facet normal 1.0 -0.0 -0.0
outer loop
vertex 73.99999999999997 36.249999999999986 6.968911086754466
vertex 73.99999999999997 21.2 0.0
vertex 73.99999999999997 37.094133342141156 6.619259607988262
endloop
endfacet
facet normal 1.0 -0.0 -0.0
outer loop
vertex 73.99999999999997 37.094133342141156 6.619259607988262
vertex 73.99999999999997 21.2 0.0
vertex 73.99999999999997 54.79999999999999 0.0
endloop
endfacet
facet normal 1.0 -0.0 -0.0
outer loop
vertex 73.99999999999997 37.094133342141156 6.619259607988262
vertex 73.99999999999997 54.79999999999999 0.0
vertex 73.99999999999997 37.99999999999998 6.499999999999999
endloop
endfacet
facet normal 1.0 -0.0 -0.0
outer loop
vertex 73.99999999999997 37.99999999999998 6.499999999999999
vertex 73.99999999999997 54.79999999999999 0.0
vertex 73.99999999999997 38.9058666578588 6.61925960798826
endloop
endfacet
facet normal 1.0 -0.0 -0.0
outer loop
vertex 73.99999999999997 38.9058666578588 6.61925960798826
vertex 73.99999999999997 54.79999999999999 0.0
vertex 73.99999999999997 39.749999999999986 6.968911086754464
endloop
endfacet
facet normal 1.0 -0.0 -0.0
outer loop
vertex 73.99999999999997 39.749999999999986 6.968911086754464
vertex 73.99999999999997 54.79999999999999 0.0
vertex 73.99999999999997 40.4748737341529 7.525126265847083
endloop
endfacet
facet normal 1.0 -0.0 -0.0
outer loop
vertex 73.99999999999997 40.4748737341529 7.525126265847083
vertex 73.99999999999997 54.79999999999999 0.0
vertex 73.99999999999997 41.03108891324552 8.249999999999998
endloop
endfacet
facet normal 1.0 -0.0 -0.0
outer loop
vertex 73.99999999999997 41.03108891324552 8.249999999999998
vertex 73.99999999999997 54.79999999999999 0.0
vertex 73.99999999999997 41.38074039201173 9.094133342141177
endloop
endfacet
facet normal 1.0 -0.0 -0.0
outer loop
vertex 73.99999999999997 41.38074039201173 9.094133342141177
vertex 73.99999999999997 54.79999999999999 0.0
vertex 73.99999999999997 41.499999999999986 10.0
endloop
endfacet
facet normal 1.0 -0.0 -0.0
outer loop
vertex 73.99999999999997 41.499999999999986 10.0
vertex 73.99999999999997 54.79999999999999 0.0
vertex 73.99999999999997 41.499999999999986 100.0
endloop
endfacet
facet normal 1.0 -0.0 -0.0
outer loop
vertex 73.99999999999997 21.2 113.00000000000004
vertex 73.99999999999997 36.24999999999999 103.03108891324554
vertex 73.99999999999997 54.79999999999999 113.00000000000004
endloop
endfacet
facet normal 1.0 -0.0 -0.0
outer loop
vertex 73.99999999999997 36.24999999999999 103.03108891324554
vertex 73.99999999999997 21.2 113.00000000000004
vertex 73.99999999999997 35.52512626584708 102.4748737341529
endloop
endfacet
facet normal 1.0 -0.0 -0.0
outer loop
vertex 73.99999999999997 35.52512626584708 102.4748737341529
vertex 73.99999999999997 21.2 113.00000000000004
vertex 73.99999999999997 34.96891108675447 101.74999999999999
endloop
endfacet
facet normal 1.0 -0.0 -0.0
outer loop
vertex 73.99999999999997 34.96891108675447 101.74999999999999
vertex 73.99999999999997 21.2 113.00000000000004
vertex 73.99999999999997 34.619259607988255 100.90586665785882
endloop
endfacet
facet normal 1.0 -0.0 -0.0
outer loop
vertex 73.99999999999997 34.619259607988255 100.90586665785882
vertex 73.99999999999997 21.2 113.00000000000004
vertex 73.99999999999997 34.5 100.0
endloop
endfacet
facet normal 1.0 -0.0 -0.0
outer loop
vertex 73.99999999999997 34.5 100.0
vertex 73.99999999999997 21.2 113.00000000000004
vertex 73.99999999999997 34.5 10.0
endloop
endfacet
facet normal 1.0 -0.0 -0.0
outer loop
vertex 73.99999999999997 54.79999999999999 113.00000000000004
vertex 73.99999999999997 36.24999999999999 103.03108891324554
vertex 73.99999999999997 37.09413334214117 103.38074039201172
endloop
endfacet
facet normal 1.0 -0.0 -0.0
outer loop
vertex 73.99999999999997 54.79999999999999 113.00000000000004
vertex 73.99999999999997 37.09413334214117 103.38074039201172
vertex 73.99999999999997 37.99999999999999 103.49999999999999
endloop
endfacet
facet normal 1.0 -0.0 -0.0
outer loop
vertex 73.99999999999997 54.79999999999999 113.00000000000004
vertex 73.99999999999997 37.99999999999999 103.49999999999999
vertex 73.99999999999997 38.90586665785881 103.38074039201172
endloop
endfacet
facet normal 1.0 -0.0 -0.0
outer loop
vertex 73.99999999999997 54.79999999999999 113.00000000000004
vertex 73.99999999999997 38.90586665785881 103.38074039201172
vertex 73.99999999999997 39.749999999999986 103.03108891324554
endloop
endfacet
facet normal 1.0 -0.0 -0.0
outer loop
vertex 73.99999999999997 54.79999999999999 113.00000000000004
vertex 73.99999999999997 39.749999999999986 103.03108891324554
vertex 73.99999999999997 40.4748737341529 102.47487373415292
endloop
endfacet
facet normal 1.0 -0.0 -0.0
outer loop
vertex 73.99999999999997 54.79999999999999 113.00000000000004
vertex 73.99999999999997 40.4748737341529 102.47487373415292
vertex 73.99999999999997 41.03108891324552 101.75
endloop
endfacet
facet normal 1.0 -0.0 -0.0
outer loop
vertex 73.99999999999997 54.79999999999999 113.00000000000004
vertex 73.99999999999997 41.03108891324552 101.75
vertex 73.99999999999997 41.380740392011724 100.90586665785882
endloop
endfacet
facet normal 1.0 -0.0 -0.0
outer loop
vertex 73.99999999999997 54.79999999999999 113.00000000000004
vertex 73.99999999999997 41.380740392011724 100.90586665785882
vertex 73.99999999999997 41.499999999999986 100.0
endloop
endfacet
facet normal 1.0 -0.0 -0.0
outer loop
vertex 73.99999999999997 54.79999999999999 113.00000000000004
vertex 73.99999999999997 41.499999999999986 100.0
vertex 73.99999999999997 54.79999999999999 0.0
endloop
endfacet
facet normal 1.0 -0.0 -0.0
outer loop
vertex 73.99999999999997 34.619259607988255 10.905866657858825
vertex 73.99999999999997 34.5 100.0
vertex 73.99999999999997 34.5 10.0
endloop
endfacet
facet normal 1.0 -0.0 -0.0
outer loop
vertex 73.99999999999997 34.5 100.0
vertex 73.99999999999997 34.619259607988255 10.905866657858825
vertex 73.99999999999997 34.61925960798826 99.09413334214118
endloop
endfacet
facet normal 1.0 -0.0 -0.0
outer loop
vertex 73.99999999999997 34.61925960798826 99.09413334214118
vertex 73.99999999999997 34.619259607988255 10.905866657858825
vertex 73.99999999999997 34.96891108675445 11.750000000000002
endloop
endfacet
facet normal 1.0 -0.0 -0.0
outer loop
vertex 73.99999999999997 34.61925960798826 99.09413334214118
vertex 73.99999999999997 34.96891108675445 11.750000000000002
vertex 73.99999999999997 34.96891108675447 98.25
endloop
endfacet
facet normal 1.0 -0.0 -0.0
outer loop
vertex 73.99999999999997 34.96891108675447 98.25
vertex 73.99999999999997 34.96891108675445 11.750000000000002
vertex 73.99999999999997 35.52512626584707 12.474873734152919
endloop
endfacet
facet normal 1.0 -0.0 -0.0
outer loop
vertex 73.99999999999997 34.96891108675447 98.25
vertex 73.99999999999997 35.52512626584707 12.474873734152919
vertex 73.99999999999997 35.52512626584708 97.52512626584709
endloop
endfacet
facet normal 1.0 -0.0 -0.0
outer loop
vertex 73.99999999999997 35.52512626584708 97.52512626584709
vertex 73.99999999999997 35.52512626584707 12.474873734152919
vertex 73.99999999999997 36.249999999999986 13.031088913245537
endloop
endfacet
facet normal 1.0 -0.0 -0.0
outer loop
vertex 73.99999999999997 35.52512626584708 97.52512626584709
vertex 73.99999999999997 36.249999999999986 13.031088913245537
vertex 73.99999999999997 36.24999999999999 96.96891108675447
endloop
endfacet
facet normal 1.0 -0.0 -0.0
outer loop
vertex 73.99999999999997 36.24999999999999 96.96891108675447
vertex 73.99999999999997 36.249999999999986 13.031088913245537
vertex 73.99999999999997 37.09413334214117 13.38074039201174
endloop
endfacet
facet normal 1.0 -0.0 -0.0
outer loop
vertex 73.99999999999997 36.24999999999999 96.96891108675447
vertex 73.99999999999997 37.09413334214117 13.38074039201174
vertex 73.99999999999997 37.09413334214118 96.61925960798827
endloop
endfacet
facet normal 1.0 -0.0 -0.0
outer loop
vertex 73.99999999999997 37.09413334214118 96.61925960798827
vertex 73.99999999999997 37.09413334214117 13.38074039201174
vertex 73.99999999999997 37.99999999999998 13.5
endloop
endfacet
facet normal 1.0 -0.0 -0.0
outer loop
vertex 73.99999999999997 37.09413334214118 96.61925960798827
vertex 73.99999999999997 37.99999999999998 13.5
vertex 73.99999999999997 37.99999999999999 96.5
endloop
endfacet
facet normal 1.0 -0.0 -0.0
outer loop
vertex 73.99999999999997 37.99999999999999 96.5
vertex 73.99999999999997 37.99999999999998 13.5
vertex 73.99999999999997 38.905866657858816 13.38074039201174
endloop
endfacet
facet normal 1.0 -0.0 -0.0
outer loop
vertex 73.99999999999997 37.99999999999999 96.5
vertex 73.99999999999997 38.905866657858816 13.38074039201174
vertex 73.99999999999997 38.905866657858816 96.61925960798827
endloop
endfacet
facet normal 1.0 -0.0 -0.0
outer loop
vertex 73.99999999999997 38.905866657858816 96.61925960798827
vertex 73.99999999999997 38.905866657858816 13.38074039201174
vertex 73.99999999999997 39.749999999999986 13.031088913245533
endloop
endfacet
facet normal 1.0 -0.0 -0.0
outer loop
vertex 73.99999999999997 38.905866657858816 96.61925960798827
vertex 73.99999999999997 39.749999999999986 13.031088913245533
vertex 73.99999999999997 39.749999999999986 96.96891108675447
endloop
endfacet
facet normal 1.0 -0.0 -0.0
outer loop
vertex 73.99999999999997 39.749999999999986 96.96891108675447
vertex 73.99999999999997 39.749999999999986 13.031088913245533
vertex 73.99999999999997 40.4748737341529 12.474873734152915
endloop
endfacet
facet normal 1.0 -0.0 -0.0
outer loop
vertex 73.99999999999997 39.749999999999986 96.96891108675447
vertex 73.99999999999997 40.4748737341529 12.474873734152915
vertex 73.99999999999997 40.4748737341529 97.52512626584709
endloop
endfacet
facet normal 1.0 -0.0 -0.0
outer loop
vertex 73.99999999999997 40.4748737341529 97.52512626584709
vertex 73.99999999999997 40.4748737341529 12.474873734152915
vertex 73.99999999999997 41.03108891324552 11.75
endloop
endfacet
facet normal 1.0 -0.0 -0.0
outer loop
vertex 73.99999999999997 40.4748737341529 97.52512626584709
vertex 73.99999999999997 41.03108891324552 11.75
vertex 73.99999999999997 41.03108891324552 98.25
endloop
endfacet
facet normal 1.0 -0.0 -0.0
outer loop
vertex 73.99999999999997 41.03108891324552 98.25
vertex 73.99999999999997 41.03108891324552 11.75
vertex 73.99999999999997 41.38074039201173 10.905866657858823
endloop
endfacet
facet normal 1.0 -0.0 -0.0
outer loop
vertex 73.99999999999997 41.03108891324552 98.25
vertex 73.99999999999997 41.38074039201173 10.905866657858823
vertex 73.99999999999997 41.38074039201173 99.09413334214118
endloop
endfacet
facet normal 1.0 -0.0 -0.0
outer loop
vertex 73.99999999999997 41.38074039201173 99.09413334214118
vertex 73.99999999999997 41.38074039201173 10.905866657858823
vertex 73.99999999999997 41.499999999999986 10.0
endloop
endfacet
facet normal 1.0 -0.0 -0.0
outer loop
vertex 73.99999999999997 41.38074039201173 99.09413334214118
vertex 73.99999999999997 41.499999999999986 10.0
vertex 73.99999999999997 41.499999999999986 100.0
endloop
endfacet
facet normal 0.0 4.0991105519975757e-16 1.0
outer loop
vertex 73.99999999999997 37.99999999999999 96.5
vertex 70.99999999999999 38.905866657858816 96.61925960798827
vertex 70.99999999999999 37.99999999999999 96.5
endloop
endfacet
facet normal 0.0 -0.2588190451025216 0.965925826289068
outer loop
vertex 70.99999999999999 38.905866657858816 96.61925960798827
vertex 73.99999999999997 37.99999999999999 96.5
vertex 73.99999999999997 38.905866657858816 96.61925960798827
endloop
endfacet
facet normal 0.0 0.25881904510251647 -0.9659258262890693
outer loop
vertex 73.99999999999997 37.09413334214117 103.38074039201172
vertex 70.99999999999999 36.24999999999999 103.03108891324554
vertex 70.99999999999999 37.09413334214117 103.38074039201172
endloop
endfacet
facet normal 0.0 0.5000000000000007 -0.8660254037844383
outer loop
vertex 70.99999999999999 36.24999999999999 103.03108891324554
vertex 73.99999999999997 37.09413334214117 103.38074039201172
vertex 73.99999999999997 36.24999999999999 103.03108891324554
endloop
endfacet
facet normal 0.0 0.5000000000000007 -0.8660254037844383
outer loop
vertex 73.99999999999997 36.24999999999999 103.03108891324554
vertex 70.99999999999999 35.52512626584708 102.4748737341529
vertex 70.99999999999999 36.24999999999999 103.03108891324554
endloop
endfacet
facet normal 0.0 0.7071067811865546 -0.7071067811865405
outer loop
vertex 70.99999999999999 35.52512626584708 102.4748737341529
vertex 73.99999999999997 36.24999999999999 103.03108891324554
vertex 73.99999999999997 35.52512626584708 102.4748737341529
endloop
endfacet
facet normal 0.0 0.7071067811865546 -0.7071067811865405
outer loop
vertex 70.99999999999999 35.52512626584708 102.4748737341529
vertex 73.99999999999997 34.96891108675447 101.74999999999999
vertex 70.99999999999999 34.96891108675447 101.74999999999999
endloop
endfacet
facet normal 0.0 0.8660254037844363 -0.5000000000000041
outer loop
vertex 73.99999999999997 34.96891108675447 101.74999999999999
vertex 70.99999999999999 35.52512626584708 102.4748737341529
vertex 73.99999999999997 35.52512626584708 102.4748737341529
endloop
endfacet
facet normal 0.0 0.8660254037844363 -0.5000000000000041
outer loop
vertex 70.99999999999999 34.96891108675447 101.74999999999999
vertex 73.99999999999997 34.619259607988255 100.90586665785882
vertex 70.99999999999999 34.619259607988255 100.90586665785882
endloop
endfacet
facet normal 0.0 0.9659258262890675 -0.2588190451025239
outer loop
vertex 73.99999999999997 34.619259607988255 100.90586665785882
vertex 70.99999999999999 34.96891108675447 101.74999999999999
vertex 73.99999999999997 34.96891108675447 101.74999999999999
endloop
endfacet
facet normal 0.0 0.9659258262890675 -0.2588190451025239
outer loop
vertex 70.99999999999999 34.619259607988255 100.90586665785882
vertex 73.99999999999997 34.5 100.0
vertex 70.99999999999999 34.5 100.0
endloop
endfacet
facet normal 0.0 1.0 3.0832440238938293e-15
outer loop
vertex 73.99999999999997 34.5 100.0
vertex 70.99999999999999 34.619259607988255 100.90586665785882
vertex 73.99999999999997 34.619259607988255 100.90586665785882
endloop
endfacet
endsolid PSU BOX
